<?xml version="1.0" encoding="UTF-8"?>
<!-- Generator: visioncortex VTracer 0.6.12 -->
<svg version="1.1" xmlns="http://www.w3.org/2000/svg" width="526" height="199">
<path d="M0 0 C0 0.6600000000000001 0 1.3200000000000003 0 2 C-2.3099999999999454 2.33 -4.6200000000000045 2.66 -7 3 C-7 2.01 -7 1.0199999999999996 -7 0 C-4.333358095368965 -1.3333209523155105 -2.8331969657383524 -0.6710203339906569 0 0 Z " fill="#000000" transform="translate(516,6)"/>
<path d="M0 0 C1.4875781250000273 0.018046874999999574 2.9751562499999977 0.036093750000000036 4.5078125 0.0546875 C5.618984375000025 0.07789062500000021 6.730156249999993 0.10109375000000043 7.875 0.125 C6.875 3.125000000000014 6.875 3.125000000000014 3.8828125 4.625 C-2.992089480796949 7.280897747108682 -9.755372878599019 9.688843219649758 -16.90625 11.4765625 C-19.61843720520119 12.269208760674992 -21.716275835457907 13.667088005671907 -24.125 15.125 C-27.109083482476137 15.948546037753218 -30.081746476444664 16.534517973041506 -33.125 17.125 C-31.125 20.125 -31.125 20.125 -27.125 22.125 C-27.125 22.785 -27.125 23.445 -27.125 24.125 C-35.56594488188978 23.36909448818898 -35.56594488188978 23.36909448818898 -38.34375 22.15625 C-42.28573020015267 20.694616892078216 -46.28149962947043 20.384413277797773 -50.4375 20 C-50.878560791015616 19.957178955078128 -50.878560791015616 19.957178955078128 -53.110595703125 19.740478515625 C-59.99026945507518 19.120012399244953 -66.79922696133826 19.014142559058588 -73.70703125 19.125 C-76.55256861147114 19.125 -79.18972392350867 18.95485966163928 -82 18.5625 C-85.4077129149079 18.201075902964313 -87.79957450250987 18.250211631828513 -91.125 18.6875 C-94.66233634819548 19.131723634424546 -97.35911394480729 19.010333267120714 -100.8125 18.125 C-105.1009323034379 17.130580915144836 -107.86461219013574 17.21853450853952 -112.125 18.125 C-112.52345128540134 21.45909972637318 -112.45730730361947 22.71671645388633 -110.296875 25.37109375 C-109.49765624999998 26.094257812500004 -108.69843750000001 26.817421875 -107.875 27.5625 C-105.06881352956685 30.18538968698337 -103.08021951417658 32.1982771586201 -101.0625 35.5 C-98.83074545664027 38.523667445842186 -97.09578525418567 38.985686156724675 -93.60546875 40.10546875 C-85.03196992275463 43.62937929159219 -78.16799756172583 49.13720121820496 -73.5859375 57.12109375 C-71.36411704459312 60.16867100567839 -68.51657551543406 61.437798184136284 -65.1875 63.07421875 C-62.62335019927036 64.38057537196265 -60.829864223494155 65.80018514978073 -59.125 68.125 C-59.454999999999984 69.115 -59.785000000000025 70.105 -60.125 71.125 C-62.63671875000006 71.453125 -62.63671875000006 71.453125 -65.8125 71.375 C-66.90433593749998 71.3530859375 -67.99617187500002 71.331171875 -69.12109375 71.30859375 C-72.12499999999994 71.125 -72.12499999999994 71.125 -75.375 70.4375 C-78.65132084002033 70.06519081363406 -80.47661954199589 71.08605344791636 -83.44140625 72.36328125 C-88.58488066300879 73.82321940216406 -93.98046657981286 73.66142261230902 -99.296875 73.81640625 C-103.91996283907889 74.18908373906861 -106.28364562455653 75.28364562455653 -109.5625 78.5625 C-119.80204110254147 88.80204110254148 -139.6133695430583 87.25891126471629 -153.25 87.125 C-165.16702414948486 87.02417915271164 -174.6209799469791 87.37172048306188 -184.125 95.125 C-187.9091916960076 97.06561112615776 -190.89541115856275 97.32172506239243 -195.125 97.125 C-194.0335136010093 104.60947816450768 -189.79191855491592 107.72989370092016 -184.125 112.125 C-183.31160156250002 112.75921875 -182.49820312499997 113.3934375 -181.66015625 114.046875 C-176.7606600135212 117.66925136441087 -171.9980818559016 120.26312024052288 -166.25390625 122.30078125 C-164.125 123.125 -164.125 123.125 -161.125 125.125 C-161.45499999999998 126.11500000000001 -161.78500000000003 127.10500000000002 -162.125 128.125 C-165.6875 128.3125 -165.6875 128.3125 -169.125 128.125 C-169.1146875 128.81593750000002 -169.1146875 128.81593750000002 -169.0625 132.3125 C-169.0571285720145 135.71798534280035 -169.2692945476423 138.80914137211394 -170.125 142.125 C-168.0093585877873 143.18282070610636 -165.89241414329882 144.23821232097706 -163.765625 145.2734375 C-162.97671874999997 145.678203125 -162.1878125 146.08296875 -161.375 146.5 C-160.57578124999998 146.899609375 -159.7765625 147.29921875 -158.953125 147.7109375 C-158.34984375 148.177578125 -157.74656249999998 148.64421875 -157.125 149.125 C-157.125 150.445 -157.125 151.765 -157.125 153.125 C-163.27933399974768 153.44765440387027 -166.80223689096908 153.34667240809767 -172.125 150.125 C-175.4999999999999 150.3125 -175.4999999999999 150.3125 -177.5703125 150.6796875 C-179.55419877548235 151.02550253884553 -181.55331529764828 151.2844247143161 -183.5546875 151.5078125 C-194.82467319817545 152.77539780347576 -205.07385087586533 154.23691676154283 -213.40625 162.44140625 C-218.18764501160092 167.125 -218.18764501160092 167.125 -221.125 167.125 C-220.79499999999996 168.115 -220.46500000000003 169.105 -220.125 170.125 C-220.085203437404 172.79136969393156 -220.08129002602857 175.45869158774036 -220.125 178.125 C-224.125 177.125 -224.125 177.125 -226.125 174.125 C-226.125 172.805 -226.125 171.485 -226.125 170.125 C-227.3934375 170.42921875 -228.661875 170.7334375 -229.96875 171.046875 C-235.16135022064495 172.19672309267804 -240.33662180339914 172.85155062973965 -245.625 173.375 C-246.5105859375 173.478125 -247.396171875 173.58125 -248.30859375 173.6875 C-254.4244801072262 174.29819056136768 -259.17734603784305 173.6442682779398 -265.125 172.125 C-267.79066641656897 172.05196804338166 -270.4600946721429 172.0280943517143 -273.125 172.125 C-273.31062499999996 171.09375 -273.49625000000003 170.0625 -273.6875 169 C-275.5485599676114 163.98322965252572 -277.6831670726672 162.06234112936528 -282.125 159.125 C-288.5234343809516 158.68251771020863 -294.7416043623236 159.6001052069564 -301.0625 160.5 C-302.00029296875 160.626328125 -302.9380859375 160.75265625 -303.904296875 160.8828125 C-318.5654287244206 162.92049587031556 -318.5654287244206 162.92049587031556 -324.3125 165.625 C-330.1093579089865 167.90573098058485 -335.9565473593435 168.46711219390258 -342.125 169.125 C-342.8868359375 169.21072265625 -342.8868359375 169.21072265625 -346.7421875 169.64453125 C-348.271015625 169.7824609375 -349.79984375 169.920390625 -351.375 170.0625 C-352.80328125 170.1952734375 -354.2315625 170.328046875 -355.703125 170.46484375 C-356.83234375 170.3526953125 -357.9615625 170.240546875 -359.125 170.125 C-360.484375 167.75390625 -360.484375 167.75390625 -361.125 165.125 C-363.98848569294165 162.26151430705835 -367.3576360582419 161.51602668618762 -371.125 160.125 C-371.62 159.79500000000002 -371.62 159.79500000000002 -374.125 158.125 C-376.97265625 157.96484375 -376.97265625 157.96484375 -380.1875 158.0625 C-385.92982204362806 158.22258897818597 -385.92982204362806 158.22258897818597 -388.125 157.125 C-388.125 156.135 -388.125 155.145 -388.125 154.125 C-386.04296875 153.1328125 -386.04296875 153.1328125 -383.3125 152.25 C-378.9656134619129 150.64367521441633 -376.913145476693 149.5953636917325 -375.125 145.125 C-372.8872178607796 140.64943572155914 -371.87238920675793 140.14651587611672 -367.5625 138 C-362.22222222222223 135.31944444444446 -362.22222222222223 135.31944444444446 -361.125 133.125 C-366.32441225282525 133.03753325182163 -371.38805749983806 133.04196422533386 -376.5625 133.625 C-380.213026169796 134.0250576624434 -383.19429624034444 134.01829730378992 -386.8125 133.8125 C-391.7537638371223 133.7440335518534 -394.4084934315788 134.6815857551188 -398.65234375 137.12109375 C-410.5984605004323 142.4519174222049 -424.2001617900728 140.7460614527117 -437 140.5 C-439.73043931375287 140.4698598390292 -442.46091070454594 140.44249122226788 -445.19140625 140.41796875 C-451.83664491777324 140.35230586297567 -458.48067075971596 140.25227789162233 -465.125 140.125 C-465.125 138.805 -465.125 137.485 -465.125 136.125 C-458.8217325482992 133.18347518920632 -453.4284369344113 132.8559304191511 -446.53125 133.1171875 C-444.125 133.125 -444.125 133.125 -443.125 132.125 C-441.38994114701404 131.99112839452272 -439.6498518811747 131.92144965077884 -437.91015625 131.87890625 C-436.83056640625 131.84603515625 -435.7509765625 131.8131640625 -434.638671875 131.779296875 C-432.37312390220006 131.71903611963972 -430.10749725827907 131.66165054733767 -427.841796875 131.607421875 C-417.8867995183972 131.29577694889252 -409.80803409730675 130.36758662478897 -401.125 125.125 C-396.2589467950473 123.4296925219368 -392.4890566723414 122.95733404547019 -387.375 123.4375 C-382.94968003248795 123.81731788144316 -378.53917435751373 124.17040093237162 -374.1015625 124.3515625 C-373.67794433593747 124.36940795898437 -373.67794433593747 124.36940795898437 -371.5341796875 124.459716796875 C-369.87620478110006 124.52696221456233 -368.217988371675 124.58855140778633 -366.5595703125 124.643798828125 C-362.39383479474697 124.8276845405079 -358.7962361961963 125.04720666525029 -355.125 127.125 C-353.5625 130.18749999999997 -353.5625 130.18749999999997 -352.125 134.125 C-351.4249303641904 135.6704367432023 -350.7163453908626 137.21203982391867 -350 138.75 C-348.6071006809034 141.86009962470044 -347.5646160646563 144.7179754989133 -347.125 148.125 C-350.6456998475912 147.53821669206815 -352.83799842515253 146.76850078742373 -356.125 145.125 C-356.455 144.465 -356.78499999999997 143.805 -357.125 143.125 C-357.4859375 143.269375 -357.4859375 143.269375 -359.3125 144 C-361.91666666666663 145.04166666666666 -364.5208333333333 146.08333333333334 -367.125 147.125 C-367 149.5 -367 149.5 -366.125 152.125 C-363.31250000000006 153.24999999999997 -363.31250000000006 153.24999999999997 -360.125 154.125 C-358.77710652616133 155.10528616279174 -357.4428728460232 156.1047113450143 -356.125 157.125 C-345.2865971722106 162.29061659903311 -330.7412868330389 158.70663642953429 -319.88671875 155.02734375 C-316.8247448043472 154.02689681726196 -314.3245694678959 154.05228251209329 -311.125 154.125 C-310.46500000000003 153.795 -309.805 153.465 -309.125 153.125 C-306.69256259641764 152.75653610927984 -304.2537981406442 152.42927084907737 -301.8125 152.125 C-294.60144450985075 151.22096953698423 -294.60144450985075 151.22096953698423 -291.390625 150.57421875 C-285.72844268560436 149.45154467042155 -280.3912695791555 149.7426399522868 -275.125 152.125 C-274.46500000000003 153.115 -273.805 154.105 -273.125 155.125 C-272.135 155.455 -271.145 155.785 -270.125 156.125 C-270.125 156.785 -270.125 157.445 -270.125 158.125 C-268.13445123965806 158.81937747453787 -266.13244614875947 159.48110217869979 -264.125 160.125 C-263.733125 160.3828125 -263.733125 160.3828125 -261.75 161.6875 C-258.19072981638953 163.6366241481676 -255.16137946344992 163.82820739239338 -251.125 164.125 C-249.619375 164.269375 -248.11375 164.41375 -246.5625 164.5625 C-240.86160196811588 164.00043963065932 -238.94055640738537 162.3221120481239 -235.125 158.125 C-234.67125 156.990625 -234.2175 155.85625 -233.75 154.6875 C-232.00996599212078 150.87281005964942 -231.01563631372272 150.11784320267623 -227.6875 147.8125 C-223.09867314499127 144.54751622471824 -221.5708201611145 141.49435831645366 -219.9765625 136.1640625 C-219.125 134.125 -219.125 134.125 -216.125 133.125 C-215.7890625 130.2812500000001 -215.7890625 130.2812500000001 -215.75 126.625 C-215.46353856812397 120.73463680704901 -214.5517470707743 117.1163715222424 -211.39453125 112.203125 C-208.52960869573621 107.51346715732821 -207.34599141256393 102.14156049779402 -206.1875 96.8125 C-205.0412013522805 92.83416939909108 -204.28061689543222 91.67088752919616 -201.125 89.125 C-198.28515625 88.25390625 -198.28515625 88.25390625 -195.1875 87.6875 C-189.9463369684703 86.52772631829511 -187.74884663062483 85.15149625624981 -184.125 81.125 C-179.73136973737087 79.03988733298958 -175.98908984658812 78.04363243050346 -171.1875 77.8125 C-163.68772153674547 77.22405584365234 -158.77561253274865 73.33832135073115 -154.375 67.4375 C-154.00374999999997 66.8909375 -154.00374999999997 66.8909375 -152.125 64.125 C-149.62500000000006 62.50000000000003 -149.62500000000006 62.50000000000003 -147.125 61.125 C-143.39020360881182 57.773259648933674 -140.4724677834413 54.04553632618598 -137.5546875 49.9921875 C-136.125 48.12500000000001 -136.125 48.12500000000001 -133.125 45.125 C-132.5703125 42.77734374999995 -132.5703125 42.77734374999995 -132.25 40.0625 C-131.45288353223964 34.95827522324894 -129.8145042911426 31.241079247708868 -127.34765625 26.74609375 C-125.96261906901668 23.776892636773738 -125.3040275283002 20.95112977627225 -124.625 17.75 C-123.7890651222844 14.167421952647533 -123.34049522489266 12.39119998369096 -121 9.5 C-112.40307411811915 5.388426752143932 -103.84734397825673 6.03653989002275 -94.5625 6.5 C-91.89071531393625 6.614113718315165 -89.21883933375057 6.726110597297669 -86.546875 6.8359375 C-85.27005859374998 6.889755859375001 -83.99324218750002 6.943574218750001 -82.677734375 6.9990234375 C-77.00340343443031 7.200229784760442 -71.34489457515258 7.159853497537451 -65.66796875 7.0625 C-63.125 7.125 -63.125 7.125 -62.125 8.125 C-58.15994309664654 9.033382601604394 -54.154446169364064 9.584231096035467 -50.125 10.125 C-49.7060546875 10.19267578125 -49.7060546875 10.19267578125 -47.5859375 10.53515625 C-39.87920146753066 11.20796653854891 -33.47126459253525 8.190646768226252 -26.556640625 5.14697265625 C-17.714427324554265 1.2876930981575825 -9.624062481631142 -0.15276289653382769 0 0 Z M-119.125 33.125 C-120.9890389498247 37.819616614373324 -122.125 41.075556763805686 -122.125 46.125 C-121.46499999999997 46.125 -120.805 46.125 -120.125 46.125 C-119.8775 46.970625 -119.63 47.81625 -119.375 48.6875 C-118.20064409494552 51.916978738899836 -117.2821900090243 53.32263292543814 -115.0625 55.8125 C-112.125 59.125 -112.125 59.125 -111.125 62.125 C-116.24285623250074 62.01837799515624 -118.5612149464327 60.97345124221647 -122.0625 57.4375 C-125.62397125755967 54.10934285179874 -125.62397125755967 54.10934285179874 -130.125 54.25 C-136.75415192296776 57.357414963891145 -141.70286006274364 61.060425183002295 -144.125 68.125 C-145.445 68.785 -146.765 69.445 -148.125 70.125 C-149.85804303326154 72.409465816572 -151.5344294954594 74.7391442431891 -153.125 77.125 C-149.0284117119689 77.5954216215921 -145.20166734284402 77.83375393019381 -141.125 77.125 C-138.56699949493463 74.70252270050102 -137.68071255576604 72.38227316363516 -136.125 69.125 C-133.29376987258013 66.46535957727224 -132.04040904269527 66.10385226067382 -128.125 65.125 C-130.52024407692574 68.88895497802613 -132.98144428688647 71.98144428688647 -136.125 75.125 C-136.125 75.785 -136.125 76.445 -136.125 77.125 C-127.01443013052614 76.38630514571834 -118.7222413243266 75.64461089466678 -112.6875 68.0625 C-108.08981462521655 62.7919826191507 -102.64914392467387 62.85539439596998 -95.9375 62.5625 C-88.41666666666669 62.22222222222223 -88.41666666666669 62.22222222222223 -85.125 61.125 C-88.56586235626855 54.24327528746291 -92.35831258099256 49.86186856193879 -99.75 47.5625 C-106.36609127299812 45.05566006743756 -112.92117347416217 39.532653051675624 -116.125 33.125 C-117.11500000000001 33.125 -118.10500000000002 33.125 -119.125 33.125 Z M-201.125 110.125 C-202.16377262801183 111.67563160413357 -203.18042554616613 113.24109680893805 -204.1875 114.8125 C-204.7559765625 115.6826171875 -205.324453125 116.552734375 -205.91015625 117.44921875 C-207.34086946149313 120.6004681065042 -207.31637315239192 121.90992450655884 -206.125 125.125 C-205.21749999999997 125.8675 -204.31 126.61000000000001 -203.375 127.375 C-199.35050071838913 130.78034554597843 -197.4253409049084 134.45306869312853 -195.125 139.125 C-199.77696437422776 137.96200890644306 -200.9131414126643 136.57187263031147 -204.125 133.125 C-205.05312500000002 132.196875 -205.98125 131.26875 -206.9375 130.3125 C-207.659375 129.590625 -208.38125000000002 128.86875 -209.125 128.125 C-209.53750000000002 129.32125 -209.95 130.51749999999998 -210.375 131.75 C-211.48113665299383 134.77450891591553 -212.52270576892664 136.6839378374104 -214.4375 139.375 C-214.994375 140.2825 -215.55124999999998 141.19 -216.125 142.125 C-214.125 146.125 -214.125 146.125 -212.125 149.125 C-210.805 148.465 -209.485 147.805 -208.125 147.125 C-205.63712546228976 146.27609686382186 -203.13509480947175 145.46825623434148 -200.625 144.6875 C-199.209609375 144.24406249999998 -197.79421875000003 143.800625 -196.3359375 143.34375 C-192.6498938368801 142.27691732570185 -189.00669188882716 141.45157292654113 -185.25 140.6875 C-180.38333826904568 139.50389612793367 -180.38333826904568 139.50389612793367 -178.25 136.375 C-178.08813495325762 132.16650878469738 -178.21534258399765 129.9443148320047 -180.125 126.125 C-182.49216923099533 124.3768694997622 -184.9321821087778 122.99773695412455 -187.51953125 121.59765625 C-192.77371024244098 118.6279029064464 -196.8982248600484 114.38837059570876 -201.125 110.125 Z M-228.9375 157.3125 C-231.125 160.125 -231.125 160.125 -231.125 162.125 C-224.2647190234144 161.8267269140615 -219.6988452674845 158.79229859651394 -214.125 155.125 C-215.26219418509424 151.7134174447173 -216.16842943807745 151.00645399395071 -219.125 149.125 C-223.3048892344941 149.125 -226.3565145622751 154.38738317057843 -228.9375 157.3125 Z " fill="#000000" transform="translate(489.125,7.875)"/>
<path d="M0 0 C4 1.5 4 1.5 7 3 C6.670000000000016 3.6599999999999966 6.339999999999975 4.32 6 5 C3.12890625 5.08203125 3.12890625 5.08203125 -0.4375 4.8125 C-1.6118359375000182 4.736445312500003 -2.7861718749999795 4.660390624999998 -3.99609375 4.58203125 C-7 4 -7 4 -9 1 C-6.8152999651335335 -1.1847000348664416 -2.7959046061359345 -0.15976597749348187 0 0 Z " fill="#000000" transform="translate(477,32)"/>
<path d="M0 0 C2.0625 1.875 2.0625 1.875 4 4 C3.670000000000016 4.659999999999997 3.339999999999975 5.319999999999993 3 6 C0.5625 5.6875 0.5625 5.6875 -2 5 C-2.329999999999984 4.010000000000005 -2.660000000000025 3.019999999999996 -3 2 C-2.009999999999991 1.3400000000000034 -1.0199999999999818 0.6800000000000068 0 0 Z " fill="#000000" transform="translate(440,76)"/>
<path d="M0 0 C0 1.3199999999999932 0 2.6399999999999864 0 4 C-1.3200000000000003 4.3300000000000125 -2.6400000000000006 4.659999999999997 -4 5 C-6.25 3.0625 -6.25 3.0625 -8 1 C-4 -1 -4 -1 0 0 Z " fill="#000000" transform="translate(15,143)"/>
<path d="M0 0 C2.9375 0.25 2.9375 0.25 6 1 C6.329999999999984 2.319999999999993 6.660000000000025 3.6399999999999864 7 5 C4.689999999999998 4.340000000000003 2.3799999999999955 3.680000000000007 0 3 C0 2.009999999999991 0 1.0200000000000102 0 0 Z " fill="#000000" transform="translate(339,157)"/>
<path d="M0 0 C3.682661029916119 0.5995029583584426 7.345431847406388 1.2475889097601396 11 2 C11 2.990000000000009 11 3.9799999999999898 11 5 C3.375 5.375 3.375 5.375 0 2 C0 1.3400000000000034 0 0.6800000000000068 0 0 Z " fill="#000000" transform="translate(145,158)"/>
<path d="M0 0 C3.125 -0.25 3.125 -0.25 6 0 C6 0.6599999999999966 6 1.3199999999999932 6 2 C3.1184663186625983 3.401827196326309 1.2291219527166817 4 -2 4 C-1.3400000000000034 2.680000000000007 -0.6800000000000068 1.3600000000000136 0 0 Z " fill="#000000" transform="translate(90,162)"/>
<path d="M0 0 C-2 4 -2 4 -6 6 C-6.3300000000000125 5.340000000000003 -6.659999999999997 4.680000000000007 -7 4 C-4.83989615874637 0.7598442381195412 -3.8842653006099965 0 0 0 Z " fill="#000000" transform="translate(214,180)"/>
</svg>
