<?xml version="1.0" encoding="UTF-8"?>
<!-- Generator: visioncortex VTracer 0.6.12 -->
<svg version="1.1" xmlns="http://www.w3.org/2000/svg" width="384" height="352">
<path d="M0 0 C1.292929687499992 -0.0012890624999999378 2.5858593750000125 -0.0025781249999998757 3.91796875 -0.00390625 C4.596660156249982 -0.0019726562499999822 4.596660156249982 -0.0019726562499999822 8.03125 0.0078125 C9.388632812499992 0.0039453124999999645 10.746015625000013 0.00007812499999992895 12.14453125 -0.00390625 C12.790996093749982 -0.00326171874999992 12.790996093749982 -0.00326171874999992 16.0625 0 C17.254238281249997 0.0011279296874999734 18.445976562499993 0.0022558593749999467 19.673828125 0.00341796875 C22.53125 0.1328125000000009 22.53125 0.1328125000000009 24.53125 1.1328125 C34.35862496185487 2.794508662638605 44.22256196689827 3.4303531261929265 54.171142578125 3.791015625 C59.34648982821702 3.985432119684818 64.39100088482456 4.457524871143619 69.53125 5.1328125 C71.10867582045788 5.272459505945962 72.68687606933122 5.403548276621255 74.265625 5.52734375 C99.23740290664458 7.551815919581832 99.23740290664458 7.551815919581832 106.53125 16.1328125 C109.82383504871598 18.620543425696543 112.55628098913144 20.141553480331616 116.46875 21.5078125 C122.4784954109303 23.721325599827384 126.22113351178558 26.40086416411105 129.04296875 32.28515625 C131.38648435976398 38.46962007977829 132.8929354041511 44.23227896641736 133.3046875 50.8203125 C133.9839931445423 57.75391494084553 136.21465392719875 62.57573015188463 141.53125 67.1328125 C146.53125 71.91059027777777 146.53125 71.91059027777777 146.53125 74.1328125 C147.19125000000003 74.1328125 147.85125 74.1328125 148.53125 74.1328125 C148.799375 75.1434375 149.0675 76.1540625 149.34375 77.1953125 C152.46943733409177 87.55943366040955 152.46943733409177 87.55943366040955 156.65625 89.8203125 C157.60500000000002 90.2534375 158.55374999999998 90.6865625 159.53125 91.1328125 C159.86124999999998 92.4528125 160.19125000000003 93.7728125 160.53125 95.1328125 C161.19125000000003 95.1328125 161.85125 95.1328125 162.53125 95.1328125 C163.68278605030918 96.55529820920549 164.83206864308346 97.97967888293867 165.96875 99.4140625 C168.24030512853176 101.91277314138493 170.89236403585045 103.73171204998262 173.6640625 105.640625 C175.7208990828895 107.2843730641502 177.10377318528208 108.92509991077786 178.53125 111.1328125 C178.53125 111.7928125 178.53125 112.4528125 178.53125 113.1328125 C178.24701171875 112.98263671875 178.24701171875 112.98263671875 176.80859375 112.22265625 C174.59129716152847 111.16154862018259 172.4409621678659 110.41534118927602 170.09375 109.6953125 C164.46983042937399 107.85140444405704 160.59186263708585 105.47346738791938 156.53125 101.1328125 C154.11429249482228 98.71585499482231 152.85074752834782 98.67319581856825 149.53125 98.1328125 C148.726875 97.8646875 147.9225 97.5965625 147.09375 97.3203125 C143.30515744752677 97.04309841079464 141.5892102037027 98.97425235620986 138.53125 101.1328125 C135.8985392925145 102.275399425491 133.24790421870222 103.19603518320613 130.53125 104.1328125 C131.11559494542018 113.48233162672254 135.65945483867148 118.74039932591938 142.625 124.484375 C145.25800091376175 126.76127333116281 147.3054304459152 129.46182903509825 149.53125 132.1328125 C151.60479165467535 133.94518287755974 153.7097213139603 135.70053577020127 155.859375 137.421875 C157.53125 139.13281250000003 157.53125 139.13281250000003 158.53125 143.1328125 C153.38244551096375 142.82076374308872 149.82421172269716 139.91263684298838 146.53125 136.1328125 C146.20125000000002 134.8128125 145.87124999999997 133.4928125 145.53125 132.1328125 C144.87124999999997 132.1328125 144.21125 132.1328125 143.53125 132.1328125 C143.53125 131.4728125 143.53125 130.8128125 143.53125 130.1328125 C142.54125 129.8028125 141.55124999999998 129.4728125 140.53125 129.1328125 C140.53125 128.4728125 140.53125 127.8128125 140.53125 127.1328125 C139.520625 126.92656249999999 138.51 126.7203125 137.46875 126.5078125 C131.97633478126653 124.5898262331407 127.87403993746193 122.10948669703103 125.4140625 116.65625 C124.7880583466777 114.90240365308884 124.16945572155532 113.14589635907133 123.55859375 111.38671875 C122.05491861937753 108.0877812961248 119.57341182312894 106.97078526814038 116.53125 105.1328125 C114.34375 101.63281249999996 114.34375 101.63281249999996 112.53125 98.1328125 C111.55923869484764 96.77893961068068 110.57240841259068 95.43426051573839 109.53125 94.1328125 C107.53125000000011 95.00781249999996 107.53125000000011 95.00781249999996 105.53125 96.1328125 C105.53125 96.7928125 105.53125 97.4528125 105.53125 98.1328125 C101.86775188907146 99.50312858729387 98.14208708463644 100.58762780581161 94.3984375 101.71875 C90.53125 103.1328125 90.53125 103.1328125 87.515625 105.26171875 C83.79466087945906 107.59462688316638 81.26432482206425 107.62981037341586 76.90625 107.6953125 C71.90957263026249 107.78008646735084 69.34208054727779 107.88239820967483 65.53125 111.1328125 C64.54124999999999 111.1328125 63.55125000000001 111.1328125 62.53125 111.1328125 C63.698512689360854 106.46376174255663 64.90746877535628 105.20514875567619 68.53125 102.1328125 C73.47202390087747 99.56361007154372 78.59328182562291 98.25668612559456 83.98046875 96.9765625 C86.53124999999997 96.13281250000001 86.53124999999997 96.13281250000001 88.484375 94.63671875 C91.09821111302702 92.7162475600851 93.43617927398594 92.25503973302659 96.59375 91.5703125 C100.24328482565357 90.77183578289161 102.3908766122353 90.2263947585098 105.53125 88.1328125 C105.89453125 85.890625 105.89453125 85.890625 105.84375 83.2578125 C105.83988281250004 82.394140625 105.83601562499996 81.53046875 105.83203125 80.640625 C105.52102859746935 78.04758989708192 104.83878632562119 76.37281497018772 103.53125 74.1328125 C99.317104460113 74.7878201400948 95.7933997646476 76.21232812411309 91.90625 77.9453125 C87.56900693937854 79.84681780841441 83.25430030186402 81.64057706744327 78.78125 83.1953125 C74.31715971941179 84.77048930471706 70.20267474403303 86.73424928082598 66.00390625 88.91015625 C62.72333785036511 90.532301446028 59.34747986599524 91.83043699815057 55.9375 93.15234375 C52.357426289697514 94.61110755078883 48.962074267950726 96.3538665832848 45.53125 98.1328125 C46.40625000000003 101.13281250000011 46.40625000000003 101.13281250000011 47.53125 104.1328125 C48.19125 104.1328125 48.85124999999999 104.1328125 49.53125 104.1328125 C50.52125000000001 107.7628125 51.51124999999999 111.3928125 52.53125 115.1328125 C53.52125000000001 115.1328125 54.51124999999999 115.1328125 55.53125 115.1328125 C56.52125000000001 115.4628125 57.51124999999999 115.7928125 58.53125 116.1328125 C57.83000000000001 116.6278125 57.12875 117.1228125 56.40625 117.6328125 C56.09687500000001 118.0453125 56.09687500000001 118.0453125 54.53125 120.1328125 C55.34375 123.82031249999997 55.34375 123.82031249999997 56.01953125 125.9140625 C56.60116128594589 128.43593929707833 56.41784312177512 130.27134686192232 56.03125 132.8203125 C55.47116867918368 136.56062568844004 55.809821797592235 138.68995609518444 57.53125 142.1328125 C57.53125 143.1228125 57.53125 144.1128125 57.53125 145.1328125 C58.19125 145.1328125 58.85124999999999 145.1328125 59.53125 145.1328125 C59.799375 145.5865625 59.799375 145.5865625 61.15625 147.8828125 C65.05728866482588 153.22107593607748 70.69187566883201 154.8153297026486 76.65625 157.1328125 C82.36777674111764 159.3788199435117 87.16399842622238 161.84275710275602 90.53125 167.1328125 C91.15625 169.64843749999997 91.15625 169.64843749999997 91.53125 172.3828125 C92.0970938685727 176.00804948848275 92.75588968534976 178.6857717254763 94.15625 182.1328125 C95.91488358070575 187.24883746205307 95.79691839857739 191.78008624718166 95.53125 197.1328125 C96.19125 197.1328125 96.85125 197.1328125 97.53125 197.1328125 C97.82 198.1021875 98.10874999999999 199.0715625 98.40625 200.0703125 C98.7775 201.0809375 99.14875 202.0915625 99.53125 203.1328125 C100.85125 203.4628125 102.17124999999999 203.7928125 103.53125 204.1328125 C106.53125 207.45424107142858 106.53125 207.45424107142858 106.53125 210.1328125 C107.19124999999997 210.1328125 107.85125 210.1328125 108.53125 210.1328125 C109.79785762468856 211.77702380622716 110.9943054610078 213.47554199706929 112.15625 215.1953125 C115.31303909708174 219.67554675393458 118.4913478442138 223.0175901326711 122.7265625 226.4453125 C124.67037532577473 228.26290371371144 125.79324488772113 230.00830341150427 127.09375 232.3203125 C129.48063908817693 236.46344105104959 132.19614733224563 238.04000431556685 136.53125 240.1328125 C137.0778125 240.46281249999998 137.0778125 240.46281249999998 139.84375 242.1328125 C143.6416559464099 244.19269369127318 147.42524569438666 245.6740526764231 151.4921875 247.10546875 C153.53125 248.1328125 153.53125 248.1328125 154.53125 251.1328125 C151.0937499999999 250.82031249999997 151.0937499999999 250.82031249999997 147.53125 250.1328125 C147.20125000000002 249.1428125 146.87124999999997 248.1528125 146.53125 247.1328125 C145.90218749999997 247.20499999999998 145.90218749999997 247.20499999999998 142.71875 247.5703125 C136.3292943472693 247.834423544469 132.98276331738634 243.74686079352372 128.46875 239.69921875 C124.94646046060666 236.6218992986949 121.10455184458021 233.42366382709926 116.53125 232.1328125 C114.60156250000006 232.86328124999997 114.60156250000006 232.86328124999997 112.53125 234.1328125 C100.53125 240.1328125 100.53125 240.1328125 97.53125 239.1328125 C97.86125000000001 237.8128125 98.19125 236.4928125 98.53125 235.1328125 C99.85125 234.8028125 101.17124999999999 234.4728125 102.53125 234.1328125 C102.86125000000001 233.1428125 103.19125 232.1528125 103.53125 231.1328125 C107.09375 229.9453125 107.09375 229.9453125 110.53125 229.1328125 C110.53125 228.1428125 110.53125 227.1528125 110.53125 226.1328125 C109.19909244015196 225.46379945232303 107.86551834693012 224.79760585180378 106.53125 224.1328125 C102.32219925126128 219.1956137314373 99.52936629157452 214.28086262792158 97.53125 208.1328125 C95.59375 206.8203125 95.59375 206.8203125 93.53125 206.1328125 C92.54124999999999 205.8028125 91.55125000000001 205.4728125 90.53125 205.1328125 C87.84891377224776 205.73333553606395 85.1790845842578 206.3948913863544 82.53125 207.1328125 C83.00403660892246 211.95523591100914 83.87646990085256 215.09292974042782 86.53125 219.1328125 C86.53125 219.7928125 86.53125 220.4528125 86.53125 221.1328125 C81.89258620612651 219.97314655153164 81.00257582545649 219.10458614805506 78.53125 215.1328125 C78.28125 211.82031250000003 78.28125 211.82031250000003 78.53125 209.1328125 C65.35634505703419 213.31532200570342 65.35634505703419 213.31532200570342 60.53125 216.1328125 C60.53125 218.1328125 60.53125 218.1328125 63.53125 221.1328125 C64.71178996168976 224.67443238506928 64.4356365825196 227.39394206385026 64.17578125 231.07421875 C64.53125 233.1328125 64.53125 233.1328125 66.34765625 234.296875 C67.0682421875 234.572734375 67.78882812500001 234.84859375 68.53125 235.1328125 C72.96777048305444 237.70599438017157 74.90921723270714 239.2667141981214 76.53125 244.1328125 C77.19125 244.1328125 77.85125 244.1328125 78.53125 244.1328125 C80.61377175863126 247.04834296208378 82.4762166605374 250.03846963234983 84.28125 253.1328125 C86.33691799633618 255.87370316178158 87.85173043889694 257.20788469110863 90.59375 259.1328125 C94.1913033278698 261.6651684738078 95.9359044459348 263.9450304205788 97.53125 268.1328125 C95.53124999999997 269.1328125 95.53124999999997 269.1328125 93.578125 268.6015625 C87.61510679460392 266.08654801881255 84.32995332126427 263.3925555602121 80.53125 258.1328125 C80.53125 257.4728125 80.53125 256.8128125 80.53125 256.1328125 C79.78617187500001 256.078671875 79.04109374999999 256.02453125 78.2734375 255.96875 C74.52891816944933 254.82725835222527 73.72311679275532 253.02534879892022 71.65625 249.7578125 C68.30668519073981 244.83754780843137 66.02153862651741 243.41180023176196 60.53125 241.1328125 C54.77232540507282 233.76638320784383 52.6403677639307 224.05600303970675 50.53125 215.1328125 C50.263125 215.266875 50.263125 215.266875 48.90625 215.9453125 C48.1225 216.3371875 47.338750000000005 216.7290625 46.53125 217.1328125 C45.561874999999986 217.6690625 44.5925 218.2053125 43.59375 218.7578125 C40.558078245230234 220.12076716540685 38.7989497359755 220.42113894729195 35.53125 220.1328125 C35.53125 219.1428125 35.53125 218.1528125 35.53125 217.1328125 C37.49572495782209 216.327699812368 39.46764617474656 215.5303678316391 41.48828125 214.87890625 C43.53124999999997 214.1328125 43.53124999999997 214.1328125 46.53125 212.1328125 C46.38671875 210.10937499999997 46.38671875 210.10937499999997 45.71875 207.7578125 C44.84650795469551 204.59659587519945 44.53125 202.50557988107008 44.53125 199.1328125 C19.948979591836775 200.39344175170066 19.948979591836775 200.39344175170066 9.53125 207.1328125 C11.000016065541303 214.5322779059467 12.506810266800443 220.66931838304313 16.53125 227.1328125 C17.585643084938 229.61084138444573 18.548683156383646 232.11562487075906 19.515625 234.62890625 C20.492809548049053 237.03804200115172 21.590679301173367 239.3229376582624 22.78125 241.6328125 C24.53125 245.13281250000003 24.53125 245.13281250000003 24.53125 247.1328125 C21.64453125 247.01953125 21.64453125 247.01953125 18.53125 246.1328125 C17.38671874999997 243.4023437499999 17.38671874999997 243.4023437499999 16.71875 239.9453125 C15.111614857755768 233.90195308081718 13.479007187566367 231.023921970167 7.95703125 228.0234375 C2.3968192688886347 225.98200701418133 -2.2240054613160964 226.5548231807891 -7.675537109375 228.635986328125 C-12.404860984631256 230.257751495755 -16.689504019754537 230.6040572102034 -21.66015625 230.64453125 C-22.49087142944336 230.66248245239257 -23.32158660888672 230.68043365478516 -24.177474975585938 230.6989288330078 C-26.795350396563933 230.75252167573012 -29.413049043636903 230.7867612938661 -32.03125 230.8203125 C-33.82098788983376 230.85353081302995 -35.610702586540555 230.88802455503355 -37.400390625 230.923828125 C-41.75638167475056 231.00821770986815 -46.112324973140744 231.07526941236506 -50.46875 231.1328125 C-50.46875 230.4728125 -50.46875 229.8128125 -50.46875 229.1328125 C-44.95037122135301 226.90765976667458 -39.98986363367645 225.82383264683745 -34.08203125 225.3828125 C-30.402060686918617 225.03076748350193 -26.823692108874027 224.28702656512252 -23.20703125 223.53515625 C-20.46875 223.1328125 -20.46875 223.1328125 -17.1328125 223.19921875 C-12.975401686056728 223.1238712192569 -9.526508009457132 222.26421299825336 -5.53125 221.1328125 C-4.8667382812499795 220.94718749999998 -4.8667382812499795 220.94718749999998 -1.50390625 220.0078125 C-0.5023046874999864 219.7190625 0.49929687499999886 219.4303125 1.53125 219.1328125 C1.53125 215.8328125 1.53125 212.5328125 1.53125 209.1328125 C-0.6131387241472908 208.89454708620585 -2.7575892010015366 208.65682463760547 -4.90234375 208.421875 C-6.520739275638505 208.2395899636267 -8.138153073533346 208.04813587189494 -9.75390625 207.84375 C-21.297920755755342 206.41856302398082 -30.58139097382859 207.7618716701157 -41.59375 211.5703125 C-46.77997540774004 213.34755607660028 -51.828871444533604 214.6963737045877 -57.21875 215.6953125 C-65.93904125830802 217.31153402117332 -73.59025042186552 220.09255630608487 -81.46875 224.1328125 C-82.12875 224.1328125 -82.78875 224.1328125 -83.46875 224.1328125 C-83.23994140625 224.56271484375 -83.23994140625 224.56271484375 -82.08203125 226.73828125 C-80.54360557255276 229.97530767542773 -79.57976040822746 232.99163658977955 -78.65625 236.4453125 C-74.86550604005937 248.5784601382041 -74.86550604005937 248.5784601382041 -70.46875 252.1328125 C-65.04141343188978 254.54450558514816 -59.24657697625791 255.85242545292283 -53.46875 257.1328125 C-53.46875 256.4728125 -53.46875 255.8128125 -53.46875 255.1328125 C-46.9344932507649 251.5277053280082 -41.00199809817987 250.44684889245104 -33.60546875 249.72265625 C-30.468750000000014 249.1328125 -30.468750000000014 249.1328125 -28.62890625 247.5859375 C-25.134211625913593 245.23507601688942 -21.277859716977332 245.82163650081085 -17.21875 245.9453125 C-16.378281249999986 245.95884765625 -15.537812500000001 245.9723828125 -14.671875 245.986328125 C-12.603890620513937 246.02157785874124 -10.536237293638408 246.07538229739893 -8.46875 246.1328125 C-12.577448592375987 250.241511092376 -15.863556607257465 250.96256471592125 -21.59375 251.5703125 C-25.46875 252.1328125 -25.46875 252.1328125 -27.2578125 253.59375 C-30.31646064714691 255.72291496462174 -33.043592608444044 255.87793244360898 -36.71875 256.3203125 C-37.350390625 256.39958984375 -37.350390625 256.39958984375 -40.546875 256.80078125 C-41.51109375 256.9103515625 -42.4753125 257.019921875 -43.46875 257.1328125 C-43.13875 257.7928125 -42.80875 258.4528125 -42.46875 259.1328125 C-40.16168922892474 259.64931864277804 -37.84968552213405 260.14855648465556 -35.5234375 260.5703125 C-32.29867723328445 261.16413024732356 -29.107413609173534 261.8605856951948 -25.90625 262.5703125 C2.379745520878487 268.666965801546 2.379745520878487 268.666965801546 9.21875 267.5078125 C16.45808873883226 266.8783047835798 23.972959916658198 269.00353697577293 30.53125 272.1328125 C30.53125 272.7928125 30.53125 273.4528125 30.53125 274.1328125 C31.52125000000001 274.1328125 32.51124999999999 274.1328125 33.53125 274.1328125 C36.46493654999253 277.08735464158013 36.94137480915316 279.4933384841953 37.15625 283.5703125 C37.3675233998332 287.1871118923827 37.74733767007476 290.5923559935343 38.53125 294.1328125 C39.19125 294.1328125 39.85124999999999 294.1328125 40.53125 294.1328125 C41.614442058280446 296.4287087104857 42.59810211942397 298.77194836214267 43.53125 301.1328125 C44.52758214437259 303.550993642071 45.527557375450925 305.96767712217877 46.53125 308.3828125 C47.026250000000005 309.58421875 47.52125000000001 310.785625 48.03125 312.0234375 C49.53125 315.1328125 49.53125 315.1328125 52.53125 318.1328125 C52.53125 318.7928125 52.53125 319.4528125 52.53125 320.1328125 C52.942460937500016 320.09091796875 52.942460937500016 320.09091796875 55.0234375 319.87890625 C71.70645415738682 318.3570144302153 71.70645415738682 318.3570144302153 79.03125 321.7578125 C83.85786944508632 323.65398442485537 87.50583985437041 322.9764944952517 92.53125 322.1328125 C92.98822265625 322.06384765625 92.98822265625 322.06384765625 95.30078125 321.71484375 C99.78894022260653 320.98041773630075 103.86553994607323 320.06516368342864 108.09375 318.3828125 C112.45625212015233 316.8330781766777 115.50470607181899 317.3926629781397 119.921875 318.53125 C122.6992746213993 319.17154871511303 125.31274072184686 319.358567537887 128.15625 319.5078125 C134.17301607579054 319.9935853984703 139.3424560852901 321.4911646719019 143.34375 326.3203125 C143.73562500000003 326.9184375 144.1275 327.5165625 144.53125 328.1328125 C145.52125 328.4628125 146.51125000000002 328.7928125 147.53125 329.1328125 C147.86124999999998 329.7928125 148.19125000000003 330.4528125 148.53125 331.1328125 C155.33803688702534 332.2672769811709 161.73807515558713 332.13920877324637 168.53125 331.1328125 C176.33787666442151 330.6669559359387 183.0660990994885 333.2055031374304 190.21875 336.0078125 C191.12906982421873 336.3596459960938 192.03938964843752 336.7114794921875 192.977294921875 337.073974609375 C193.82396728515624 337.4208129882812 194.6706396484375 337.7676513671875 195.54296875 338.125 C196.31084716796875 338.4380810546875 197.0787255859375 338.751162109375 197.869873046875 339.07373046875 C198.41812744140623 339.4232275390625 198.9663818359375 339.772724609375 199.53125 340.1328125 C199.53125 341.1228125 199.53125 342.1128125 199.53125 343.1328125 C194.92429429674138 343.33128448199415 191.02730037139378 342.87210127017613 186.581787109375 341.658447265625 C178.78106954790206 339.5496010524516 171.5429056218601 338.80476675773474 163.46875 339.1953125 C162.6132958984375 339.23325927734373 161.75784179687503 339.2712060546875 160.87646484375 339.310302734375 C155.0083820991578 339.70886575064674 150.041976492797 341.0850198757884 144.53125 343.1328125 C145.53125 339.1328125 145.53125 339.1328125 147.53125 337.1328125 C146.33499999999998 336.3696875 145.13875000000002 335.6065625 143.90625 334.8203125 C143.23335937500002 334.3910546875 142.56046874999998 333.961796875 141.8671875 333.51953125 C141.096328125 333.0619140625 140.32546875000003 332.604296875 139.53125 332.1328125 C138.67660156250003 331.6107421875 137.821953125 331.088671875 136.94140625 330.55078125 C132.2151822377797 328.5855815748156 127.6632400337835 328.19687559419845 122.59375 327.7578125 C121.63017578124999 327.6508203125 120.66660156249998 327.543828125 119.673828125 327.43359375 C113.7208740801421 326.88834710474305 109.9560007628063 327.2929175644521 104.53125 330.1328125 C97.34830627925098 332.3997699154137 89.77505320374485 332.50111999484056 82.3076171875 332.79150390625 C77.96711131827749 332.9647332645182 73.80847494519202 333.2980637606964 69.53125 334.1328125 C69.20124999999999 333.1428125 68.87125 332.1528125 68.53125 331.1328125 C69.52125000000001 330.4728125 70.51124999999999 329.8128125 71.53125 329.1328125 C65.79753146216012 328.50074903913577 60.177877179215415 328.0840343410177 54.40625 328.1953125 C47.45182662652596 328.23125267247275 41.62780399656219 327.87857259023554 36.03125 323.5078125 C30.017050715745455 319.30526750833855 21.544246686503556 320.77419335125836 14.53125 321.1328125 C14.861250000000013 319.8128125 15.191249999999997 318.4928125 15.53125 317.1328125 C14.169999999999987 316.6996875 12.808750000000003 316.2665625 11.40625 315.8203125 C7.586399100404009 314.5470288668013 4.090573514893407 313.03111837460983 0.53125 311.1328125 C-0.5825000000000102 310.6171875 -1.696249999999992 310.1015625 -2.84375 309.5703125 C-3.276875000000018 309.333125 -3.276875000000018 309.333125 -5.46875 308.1328125 C-5.46875 307.4728125 -5.46875 306.8128125 -5.46875 306.1328125 C-6.193203124999997 305.96265625 -6.917656249999993 305.7925 -7.6640625 305.6171875 C-13.233480866074842 304.2211199629039 -18.026580467786005 302.97468885218507 -22.46875 299.1328125 C-22.46875 298.1428125 -22.46875 297.1528125 -22.46875 296.1328125 C-21.637304687500006 296.274609375 -20.80585937500001 296.41640625 -19.94921875 296.5625 C-16.716547574347572 296.9996583796256 -13.727869453918856 297.3198111571921 -10.46875 297.1328125 C-8.406249999999972 294.3828125 -8.406249999999972 294.3828125 -7.46875 291.1328125 C-4.720917982119175 288.3849804821192 -2.9453132774540336 287.2080360872298 0.46875 285.5703125 C1.3233984375000034 285.1565234375 2.178046875000007 284.742734375 3.05859375 284.31640625 C3.8745703124999977 283.9258203125 4.6905468749999955 283.535234375 5.53125 283.1328125 C6.865931033935965 282.4688480733371 8.19977538116325 281.80318371180414 9.53125 281.1328125 C8.405898437500014 281.03484375 7.280546874999999 280.936875 6.12109375 280.8359375 C-20.26056274177941 278.34099975822056 -20.26056274177941 278.34099975822056 -25.46875 273.1328125 C-28.63366342033001 272.23152606545113 -31.765076424624013 271.4313449373156 -34.96875 270.6953125 C-35.912021484375 270.4728686523438 -36.85529296875001 270.2504248046875 -37.8271484375 270.021240234375 C-43.76624823416866 268.65317248645243 -49.6908998243335 267.5767844329334 -55.71875 266.6953125 C-63.44082713586435 265.5493284195413 -70.41069799992174 263.3026815203196 -77.69921875 260.53515625 C-85.24853690903458 257.72665343228664 -91.83160863899192 256.804752780901 -99.84765625 256.4765625 C-103.37639852274205 256.1415794147775 -106.21729441162518 255.53559765369022 -109.46875 254.1328125 C-109.46875 253.4728125 -109.46875 252.8128125 -109.46875 252.1328125 C-108.355 252.1534375 -107.24125000000001 252.1740625 -106.09375 252.1953125 C-102.46875 252.1328125 -102.46875 252.1328125 -100.46875 251.1328125 C-104.57528961015998 246.4963968111097 -109.0600734461128 243.94532430802136 -114.46875 241.1328125 C-119.20404411764707 238.66222426470586 -119.20404411764707 238.66222426470586 -120.71875 235.6328125 C-123.0620234093765 232.28527905803358 -125.28542553394813 232.04636185413955 -129.1015625 230.9453125 C-132.8900916788638 229.644959250489 -135.44973043432256 227.7580469049369 -138.46875 225.1328125 C-138.13875 224.1428125 -137.80875 223.1528125 -137.46875 222.1328125 C-133.8345973464929 222.57781078410292 -130.734988654581 223.020992265076 -127.34375 224.4453125 C-122.16222394035091 225.3646155105829 -118.61888195063582 223.97954947230366 -113.71484375 222.26171875 C-110.46875 221.1328125 -110.46875 221.1328125 -107.62890625 220.47265625 C-105.15625000000003 219.8828125 -105.15625000000003 219.8828125 -101.46875 218.1328125 C-100.90625 213.9453125 -100.90625 213.9453125 -101.46875 210.1328125 C-100.47874999999999 210.1328125 -99.48875000000001 210.1328125 -98.46875 210.1328125 C-95.46875 215.24392361111111 -95.46875 215.24392361111111 -95.46875 218.1328125 C-94.01335677026212 218.27215866029405 -92.55368389798386 218.36670067472394 -91.09375 218.4453125 C-90.281640625 218.5033203125 -89.46953125 218.561328125 -88.6328125 218.62109375 C-85.50568872422407 218.13851292040493 -83.97323008719714 217.41491036008685 -81.25 215.9140625 C-74.46464611546233 212.34931616964667 -67.17170195595656 210.7020165334912 -59.77294921875 208.910400390625 C-57.33785205116391 208.3188798022777 -54.909255562837856 207.70475255882675 -52.48046875 207.087890625 C-50.91179265651131 206.69916918640746 -49.34279222649603 206.31175376913697 -47.7734375 205.92578125 C-47.41603988647461 205.83519187927246 -47.41603988647461 205.83519187927246 -45.607391357421875 205.3767547607422 C-40.80413651156586 204.23123231207123 -36.389359674386796 204.05701156434083 -31.46875 204.1328125 C-28.84598564617113 203.5435454836934 -26.239992354052845 202.8747046216024 -23.65625 202.1328125 C-17.090471629815397 200.34741498988242 -11.237329257619308 199.86293294427355 -4.46875 200.1328125 C0.9344826917103433 200.14177308489505 4.378997735421393 199.49146689070867 8.78125 196.2578125 C18.992844249031663 188.92371216306663 33.37867692166057 189.22359255455 45.53125 188.1328125 C44.226010997281264 185.52233449456253 43.17298425602439 185.45214827194502 40.46875 184.5078125 C39.169375 184.0540625 37.870000000000005 183.6003125 36.53125 183.1328125 C37.19125 182.1428125 37.85124999999999 181.1528125 38.53125 180.1328125 C41.65624999999994 180.4453125 41.65624999999994 180.4453125 45.53125 181.1328125 C53.14001897133218 181.52404352866782 53.14001897133218 181.52404352866782 54.53125 180.1328125 C55.459374999999994 180.1946875 56.38749999999999 180.2565625 57.34375 180.3203125 C65.47829673813342 179.95607906396418 73.1738232900731 176.4770973681486 80.53125 173.1328125 C79.50170322223417 170.08278017086874 78.80721667341945 169.26357577839352 75.84375 167.859375 C74.75062500000001 167.495859375 73.6575 167.13234375 72.53125 166.7578125 C66.52536276615186 164.58476118120478 60.46530994489822 162.29623833585734 55.53125 158.1328125 C55.303085937499986 157.289765625 55.074921875 156.44671875 54.83984375 155.578125 C53.53125 153.1328125 53.53125 153.1328125 49.390625 151.875 C47.69139228728409 151.56387288358724 45.98783960074633 151.27566288576736 44.28125 151.0078125 C38.44991309215706 150.02260946077539 33.81996697806565 148.89805594853146 28.53125 146.1328125 C23.72641398392517 145.18804137324372 19.037370621243895 144.84863879787852 14.21875 145.7578125 C10.44135050569372 146.28489149920551 8.799961596375766 145.05558402727988 5.53125 143.1328125 C4.116876104582644 142.33705685941837 2.7000040848040783 141.54573216748346 1.28125 140.7578125 C0.5232812499999966 140.32984375 -0.23468750000000682 139.901875 -1.015625 139.4609375 C-4.440355911812361 137.60678382163024 -7.962413816633102 135.9706029053138 -11.5 134.34375 C-13.46875 133.1328125 -13.46875 133.1328125 -14.46875 130.1328125 C-10.578277710221073 129.11790668527505 -7.87932415215306 129.3419098624859 -3.96875 130.1328125 C-1.0351562499999716 130.453125 -1.0351562499999716 130.453125 1.53125 130.1328125 C3.2701484374830443 128.05720428549768 4.114875348588612 125.95958997283307 5.19921875 123.484375 C9.577800383388762 115.75444496099696 23.632630163429468 113.4146360083426 31.53125 111.1328125 C33.524820569855535 110.76296456622589 35.523551047055065 110.41610744428057 37.53125 110.1328125 C36.53125 106.13281249999999 36.53125 106.13281249999999 33.53125 104.1328125 C33.53125 103.4728125 33.53125 102.8128125 33.53125 102.1328125 C31.632812500000057 101.35156250000003 31.632812500000057 101.35156250000003 29.15625 100.6328125 C24.742012331838566 99.34357483183855 24.742012331838566 99.34357483183855 22.53125 97.1328125 C22.53125 96.1428125 22.53125 95.1528125 22.53125 94.1328125 C25.921752981140145 91.55603023433349 29.429791403157253 91.91309150374057 33.53125 92.1328125 C34.85124999999999 92.4628125 36.171249999999986 92.7928125 37.53125 93.1328125 C37.53125 92.4728125 37.53125 91.8128125 37.53125 91.1328125 C43.564811389872006 87.04819647204022 50.21798510293772 84.31632503675499 57.12109375 82.08984375 C59.645393077382835 81.08748826343793 61.41276090942176 79.81127280731039 63.53125 78.1328125 C65.18822378681062 77.44240675549558 66.85682610481274 76.7797490049587 68.53125 76.1328125 C69.68625 75.5140625 70.84125 74.8953125 72.03125 74.2578125 C75.63775708747661 72.40656361479337 79.26474207686658 71.2586018080591 83.15625 70.1328125 C87.93012332782405 68.74043277938465 91.49838665289354 67.10439601892055 95.53125 64.1328125 C96.52125000000001 64.1328125 97.51124999999999 64.1328125 98.53125 64.1328125 C98.86125000000001 59.8428125 99.19125 55.5528125 99.53125 51.1328125 C96.89125000000001 50.4728125 94.25125 49.8128125 91.53125 49.1328125 C91.53125 47.8128125 91.53125 46.4928125 91.53125 45.1328125 C92.3910546875 45.202421875 93.250859375 45.27203125 94.13671875 45.34375 C103.08579092830914 45.753631168472175 111.20934807031347 44.7397839112716 118.53125 39.1328125 C119.0703125 36.61328124999995 119.0703125 36.61328124999995 118.53125 34.1328125 C115.08073481663445 30.68229731663446 113.15482951790545 30.42135105417036 108.53125 29.1328125 C107.18475193190955 28.471467672843602 105.85134254400037 27.78290614511088 104.53125 27.0703125 C100.90855916021113 25.166984695501544 97.63520007300082 24.474808339416736 93.53125 24.1328125 C93.53125 23.1428125 93.53125 22.1528125 93.53125 21.1328125 C94.52125000000001 20.8028125 95.51124999999999 20.4728125 96.53125 20.1328125 C96.53125 19.4728125 96.53125 18.8128125 96.53125 18.1328125 C95.68562499999999 18.0090625 94.84 17.8853125 93.96875 17.7578125 C90.53125 17.1328125 90.53125 17.1328125 87.242919921875 16.149169921875 C81.2023904426913 14.495106630298217 75.06223152896686 14.062599419501355 68.84375 13.4453125 C67.54501953125 13.30287109375 66.24628906250001 13.1604296875 64.908203125 13.013671875 C57.80181818147051 12.296251797828011 51.22099102646084 12.18026932980704 44.124267578125 12.940185546875 C40.64224365977509 13.198853927590383 37.60322315342495 12.694131563805744 34.21875 11.8828125 C33.043125 11.6030859375 31.867500000000007 11.323359375 30.65625 11.03515625 C27.53124999999997 10.132812499999995 27.53124999999997 10.132812499999995 23.71875 8.4453125 C19.431938664229932 6.680154891153503 16.158440298649367 6.998691042068135 11.53125 7.1328125 C10.871250000000003 6.967812500000001 10.871250000000003 6.967812500000001 7.53125 6.1328125 C6.4793750000000045 6.1740625 5.427500000000009 6.2153125 4.34375 6.2578125 C-0.2223357906079002 6.108104769160397 -4.353119194243789 5.167296662482656 -8.46875 3.1328125 C-8.46875 2.4728125 -8.46875 1.8128124999999997 -8.46875 1.1328125 C-5.618678692527368 -0.29222315373631713 -3.1825474499569566 0.003012146045118902 0 0 Z M114.34375 51.2578125 C113.4633203125 51.672890625 112.582890625 52.08796875 111.67578125 52.515625 C108.94798919441416 54.572648517326996 108.8780780574798 55.80947499399915 108.53125 59.1328125 C108.20124999999996 60.1228125 107.87125000000003 61.112812500000004 107.53125 62.1328125 C107.09375 65.3828125 107.09375 65.3828125 107.53125 69.1328125 C109.02908866941345 70.79345972043664 110.53170739022556 72.45074139519954 112.08203125 74.0625 C114.43793912790403 77.42808268272006 114.48386339593588 81.05276416494874 114.9765625 85.0546875 C116.11732918225243 91.38513922968255 119.01846540588491 96.6200279058849 123.53125 101.1328125 C127.07187397246611 100.24765650688346 129.42247457068322 99.08962378739889 132.515625 97.25390625 C136.0629648713961 95.28087031377774 139.80037868196393 93.72329732492241 143.53125 92.1328125 C141.15836864406782 83.48874470338984 141.15836864406782 83.48874470338984 139.53125 80.1328125 C138.87124999999997 80.1328125 138.21125 80.1328125 137.53125 80.1328125 C137.20125000000002 79.1428125 136.87124999999997 78.1528125 136.53125 77.1328125 C135.87124999999997 77.1328125 135.21125 77.1328125 134.53125 77.1328125 C134.53125 76.4728125 134.53125 75.8128125 134.53125 75.1328125 C130.2130681818182 70.4737215909091 130.2130681818182 70.4737215909091 127.53125 69.1328125 C125.51197489061542 69.73859503281538 123.50871603267211 70.40200983575161 121.53125 71.1328125 C122.37687499999998 70.5759375 123.22250000000003 70.0190625 124.09375 69.4453125 C124.898125 68.6821875 125.70249999999999 67.9190625 126.53125 67.1328125 C126.4535292353599 64.17942344367685 125.47227622410833 61.96976735488779 124.46875 59.1953125 C123.4923625264367 56.00578008635985 123.37343805965884 53.44686324716477 123.53125 50.1328125 C119.0640447310376 49.0160111827594 118.29601632671074 49.30794993999795 114.34375 51.2578125 Z M35.53125 120.1328125 C33.88603143924291 124.06703079746264 33.53125 126.86922010066115 33.53125 131.1328125 C32.54124999999999 130.8028125 31.55125000000001 130.4728125 30.53125 130.1328125 C29.84375 127.0703125 29.84375 127.0703125 29.53125 124.1328125 C22.549117270047617 123.7220988100028 16.399543109048636 126.59160114109136 10.53125 130.1328125 C9.90625 132.7578125 9.90625 132.7578125 10.53125 135.1328125 C13.164574558028818 137.76613705802882 14.13867667718776 137.2602327668311 17.78125 137.0703125 C25.97894435963795 136.92216139711496 33.9108256322684 138.49180535680063 41.6328125 141.234375 C44.456228268148266 142.10955778527506 46.60035616096991 142.30521801994294 49.53125 142.1328125 C50.068902299930244 128.71141804988997 50.068902299930244 128.71141804988997 46.53125 123.1328125 C46.18062499999999 122.0190625 45.829999999999984 120.9053125 45.46875 119.7578125 C45.15937500000001 118.8915625 44.849999999999994 118.0253125 44.53125 117.1328125 C40.984928726697234 117.1328125 38.59699939635834 118.43570122701593 35.53125 120.1328125 Z M74.265625 186.08984375 C70.95522123907924 187.35252632737976 67.86007747285814 187.72850902474522 64.34375 188.1328125 C57.159022610204886 189.00767693431771 53.62934520618194 191.03471729381806 48.53125 196.1328125 C48.4629425598508 201.17048621100406 49.9140237958251 205.28204124559676 52.84375 209.3203125 C55.53125 211.1328125 55.53125 211.1328125 57.79296875 210.95703125 C61.14397714578138 209.9483825031956 63.956707319578896 208.4290662047243 67.03125 206.7578125 C72.98773570046768 203.68207701158533 78.50075026706068 201.9211652867406 85.08203125 200.73828125 C85.89027343750001 200.5384765625 86.698515625 200.338671875 87.53125 200.1328125 C88.53125 198.1328125 88.53125 198.1328125 87.65625 195.5078125 C86.53125 192.1328125 86.53125 192.1328125 86.21875 187.8203125 C85.53125 184.1328125 85.53125 184.1328125 83.53125 182.8828125 C79.98471958059841 183.1783567016168 77.42746723156316 184.5354481562953 74.265625 186.08984375 Z M-109.46875 226.1328125 C-110.190625 226.38546875 -110.9125 226.638125 -111.65625 226.8984375 C-113.59375 227.6328125 -113.59375 227.6328125 -116.46875 229.1328125 C-116.46875 230.1228125 -116.46875 231.1128125 -116.46875 232.1328125 C-112.3448391167015 235.49705558900666 -107.8893668747044 237.25411079394345 -102.93359375 239.0078125 C-100.46875 240.1328125 -100.46875 240.1328125 -98.0859375 242.1484375 C-94.9663851367745 244.5137100380874 -92.47421492933371 245.11150645366996 -88.65625 245.8828125 C-87.4948046875 246.12515625 -86.333359375 246.3675 -85.13671875 246.6171875 C-84.2562890625 246.78734375 -83.375859375 246.9575 -82.46875 247.1328125 C-81.86328125 244.76171875 -81.86328125 244.76171875 -81.46875 242.1328125 C-82.02562499999999 241.4521875 -82.58250000000001 240.77156250000002 -83.15625 240.0703125 C-86.17448656039858 236.23633632868288 -87.22013280116684 232.3075778507697 -88.63671875 227.6796875 C-89.46875 225.1328125 -89.46875 225.1328125 -90.46875 224.1328125 C-97.6791369984537 222.75940545267548 -102.64672313526326 223.5745524257237 -109.46875 226.1328125 Z M7.53125 294.1328125 C7.53125 294.7928125 7.53125 295.4528125 7.53125 296.1328125 C6.211250000000007 296.4628125 4.891250000000014 296.7928125 3.53125 297.1328125 C3.53125 298.1228125 3.53125 299.1128125 3.53125 300.1328125 C6.19921875 301.4140625 6.19921875 301.4140625 9.71875 302.6328125 C20.345305636896057 306.35389595534406 20.345305636896057 306.35389595534406 23.53125 311.1328125 C25.73828125 311.828125 25.73828125 311.828125 28.34375 312.2578125 C29.19582031249999 312.404765625 30.047890625000008 312.55171875 30.92578125 312.703125 C31.785585937500002 312.844921875 32.645390625000005 312.98671875 33.53125 313.1328125 C35.19906008485833 313.46037685968173 36.86609484385488 313.7920087517046 38.53125 314.1328125 C37.60190334412087 311.5462813541875 36.663188043691804 308.9638299432807 35.71875 306.3828125 C35.588232421875006 306.0180078125 35.588232421875006 306.0180078125 34.927734375 304.171875 C33.52686524036832 300.36704525161764 32.06932607781218 297.2835276310772 29.53125 294.1328125 C29.376562500000006 293.5965625 29.376562500000006 293.5965625 28.59375 290.8828125 C28.243124999999992 289.9753125 27.892499999999984 289.0678125 27.53125 288.1328125 C20.768326127076193 288.1328125 12.930521786174666 289.8506314282063 7.53125 294.1328125 Z " fill="#000000" transform="translate(152.46875,1.8671875)"/>
<path d="M0 0 C1.6500000000000057 0 3.3000000000000114 0 5 0 C4.6699999999999875 0.9899999999999984 4.340000000000003 1.9800000000000004 4 3 C2.680000000000007 2.6700000000000017 1.3600000000000136 2.34 0 2 C0 1.3399999999999999 0 0.6799999999999997 0 0 Z " fill="#000000" transform="translate(235,23)"/>
<path d="M0 0 C1.3199999999999932 0.3299999999999983 2.6399999999999864 0.6599999999999966 4 1 C4 1.990000000000002 4 2.979999999999997 4 4 C2.680000000000007 3.6700000000000017 1.3600000000000136 3.3400000000000034 0 3 C0 2.009999999999998 0 1.0200000000000031 0 0 Z " fill="#000000" transform="translate(234,43)"/>
<path d="M0 0 C0.9900000000000091 0.3299999999999983 1.9799999999999898 0.6599999999999966 3 1 C2.6699999999999875 1.9899999999999949 2.3400000000000034 2.980000000000004 2 4 C1.3400000000000034 3.6700000000000017 0.6800000000000068 3.3400000000000034 0 3 C0 2.010000000000005 0 1.019999999999996 0 0 Z " fill="#000000" transform="translate(167,91)"/>
<path d="M0 0 C9.786937148067693 2.4467342870169233 16.06335121968766 7.586942973237086 22.25390625 15.29296875 C24 17 24 17 28 18 C28 18.659999999999997 28 19.319999999999993 28 20 C24.921228671254823 20.450551901767597 22.789893023060813 20.50042912020004 20.11328125 18.8046875 C15.33409135759831 14.817019623321045 15.33409135759831 14.817019623321045 14.17578125 11.984375 C11.97297539704499 8.266682729896559 7.478156429975911 7.236577367694579 3.65234375 5.5625 C1 4 1 4 0 0 Z " fill="#000000" transform="translate(303,113)"/>
<path d="M0 0 C3.792821821039297 -0.35282063451528245 5.618278698125835 -0.22740843515907727 8.9375 1.75 C9.61812500000002 2.492500000000007 10.298749999999984 3.2349999999999994 11 4 C10.670000000000016 5.319999999999993 10.339999999999975 6.640000000000001 10 8 C6.013289369461347 6.6331277838153255 3.115053673733314 4.848049073127584 0 2 C0 1.3400000000000034 0 0.6800000000000068 0 0 Z " fill="#000000" transform="translate(331,115)"/>
<path d="M0 0 C0.7566796874999966 0.15468749999999432 1.5133593749999932 0.30937500000000284 2.29296875 0.46875 C2.622968749999984 1.4587499999999949 2.952968750000025 2.448750000000004 3.29296875 3.46875 C1.9523437500000114 3.674999999999997 0.6117187499999943 3.8812499999999943 -0.76953125 4.09375 C-4.438193801937587 4.878673150647117 -6.356773407341564 5.783345175088243 -8.95703125 8.46875 C-13.450841447611737 12.782383845348988 -19.63474851518083 13.608248387151264 -25.70703125 13.46875 C-26.69703125000001 12.478749999999991 -27.68703124999999 11.488749999999996 -28.70703125 10.46875 C-26.909996112687082 7.936564124695437 -25.5579811408482 6.5853184781983884 -22.42578125 6.15625 C-21.56984374999999 6.114999999999995 -20.713906250000008 6.073750000000004 -19.83203125 6.03125 C-15.76235339537763 5.8061440924662975 -14.996545071080021 5.7213046098783025 -11.76953125 2.90625 C-7.7457998871402935 -0.2963116969699655 -4.998816679695523 -0.053968331224780286 0 0 Z " fill="#000000" transform="translate(253.70703125,115.53125)"/>
<path d="M0 0 C0.9900000000000091 0.3299999999999983 1.9800000000000182 0.6599999999999966 3 1 C2.670000000000016 1.9899999999999949 2.339999999999975 2.980000000000004 2 4 C1.009999999999991 3.6700000000000017 0.01999999999998181 3.3400000000000034 -1 3 C-0.6700000000000159 2.010000000000005 -0.339999999999975 1.019999999999996 0 0 Z " fill="#000000" transform="translate(349,121)"/>
<path d="M0 0 C0.9900000000000091 0.3299999999999983 1.9799999999999898 0.6599999999999966 3 1 C2.6699999999999875 1.990000000000009 2.3400000000000034 2.9799999999999898 2 4 C1.009999999999991 3.6699999999999875 0.020000000000010232 3.3400000000000034 -1 3 C-0.6699999999999875 2.009999999999991 -0.3400000000000034 1.0200000000000102 0 0 Z " fill="#000000" transform="translate(134,127)"/>
<path d="M0 0 C-2.528947863041651 1.5896243710547537 -4.8816480137256235 2.955962051618826 -7.6875 4 C-10 5 -10 5 -12 8 C-9.843699859565675 11.980861797724913 -7.574548169479158 14.34791587425741 -4 17 C-3.5694531249999955 17.777304687499992 -3.138906249999991 18.554609374999984 -2.6953125 19.35546875 C-0.7695869021309818 22.359423196445448 1.1063390581059025 23.7821285040705 4.0625 25.75 C4.5014257812500205 26.046484375000006 4.5014257812500205 26.046484375000006 6.72265625 27.546875 C9 29 9 29 11 30 C11 30.99000000000001 11 31.97999999999999 11 33 C5.116251508929679 32.71298787848437 1.833158881783163 30.22871827498929 -2 26 C-2.6806250000000205 24.783124999999984 -3.361249999999984 23.566249999999997 -4.0625 22.3125 C-6.319031439421394 18.45455915195697 -8.01196669384018 17.7818872219012 -12 16 C-15 12.699999999999989 -15 12.699999999999989 -15 10 C-16.154999999999973 10.495000000000005 -17.310000000000002 10.990000000000009 -18.5 11.5 C-22.852828917511374 13.155629570410554 -26.375220333264792 13.247756053575102 -31 13 C-30.669999999999987 11.680000000000007 -30.340000000000003 10.360000000000014 -30 9 C-27.5234375 7.9453125 -27.5234375 7.9453125 -24.375 7.125 C-20.22629702456811 5.895573262298228 -17.39577514235259 4.866618876231087 -14.3125 1.8125 C-10.525360557580484 -1.8720322161470904 -4.184354240740561 -4.184354240740561 0 0 Z " fill="#000000" transform="translate(285,143)"/>
<path d="M0 0 C8.009382329945254 0.7701329163408843 8.009382329945254 0.7701329163408843 11 4 C11 5.319999999999993 11 6.639999999999986 11 8 C7.053722357507411 7.436246051072487 4.205199246808888 6.403899435106666 1 4 C0.6700000000000159 2.680000000000007 0.339999999999975 1.3600000000000136 0 0 Z " fill="#000000" transform="translate(320,148)"/>
<path d="M0 0 C2.9375 0.8125 2.9375 0.8125 6 2 C6.3300000000000125 2.990000000000009 6.659999999999997 3.9799999999999898 7 5 C4.0625 4.75 4.0625 4.75 1 4 C0.6699999999999875 2.680000000000007 0.3400000000000034 1.3600000000000136 0 0 Z " fill="#000000" transform="translate(175,177)"/>
<path d="M0 0 C2.5 0.8125 2.5 0.8125 5 2 C5 2.990000000000009 5 3.9799999999999898 5 5 C2.5 4.1875 2.5 4.1875 0 3 C0 2.009999999999991 0 1.0200000000000102 0 0 Z " fill="#000000" transform="translate(306,180)"/>
<path d="M0 0 C0.9900000000000091 0.3300000000000125 1.9800000000000182 0.6599999999999966 3 1 C3.433125000000018 2.1137500000000102 3.8662499999999795 3.227499999999992 4.3125 4.375 C6.328110618870198 8.704830218313816 7.754153376499971 9.142442102218752 12 11 C15 14.300000000000011 15 14.300000000000011 15 17 C10.259303124765324 16.40741289059565 5.74276619020111 15.011331633280292 2 12 C0.07229575395314214 8.834883479302391 -1.3495384125572514 5.660440697962258 -2 2 C-1.339999999999975 1.3400000000000034 -0.6800000000000068 0.6800000000000068 0 0 Z " fill="#000000" transform="translate(262,184)"/>
<path d="M0 0 C0.8249999999999886 0.16499999999999204 0.8249999999999886 0.16499999999999204 5 1 C4.670000000000016 1.990000000000009 4.339999999999975 2.9799999999999898 4 4 C2 3.125 2 3.125 0 2 C0 1.3400000000000034 0 0.6800000000000068 0 0 Z " fill="#000000" transform="translate(284,206)"/>
<path d="M0 0 C1.4835000991175145 0.4225727555061951 2.9617642350715716 0.8635632228376835 4.4375 1.3125 C4.84935546875 1.434316406249991 4.84935546875 1.434316406249991 6.93359375 2.05078125 C9 3 9 3 10 6 C3.3749999999999982 5.25 3.3749999999999982 5.25 0 3 C0 2.009999999999991 0 1.0200000000000102 0 0 Z " fill="#000000" transform="translate(4,218)"/>
<path d="M0 0 C0.9900000000000091 0 1.9799999999999898 0 3 0 C4.17578125 2.4140625 4.17578125 2.4140625 5.3125 5.625 C7.448826402998094 11.148185334580432 9.611622439968187 14.121898900437003 14 18 C14 18.659999999999997 14 19.319999999999993 14 20 C9.915165402782094 19.81000769315267 8.317715648504077 19.302938176480637 5.3125 16.4375 C1.896857837330714 11.360194082518603 -0.5906956749290089 6.300753865909456 0 0 Z " fill="#000000" transform="translate(187,232)"/>
<path d="M0 0 C1.3199999999999932 0 2.6400000000000006 0 4 0 C3.6700000000000017 0.9900000000000091 3.3400000000000034 1.9799999999999898 3 3 C2.010000000000005 3 1.019999999999996 3 0 3 C0 2.009999999999991 0 1.0200000000000102 0 0 Z " fill="#000000" transform="translate(88,237)"/>
<path d="M0 0 C-3 3 -3 3 -5.6875 3.1875 C-6.069062500000001 3.156562500000007 -6.069062500000001 3.156562500000007 -8 3 C-6.3727393788460915 -1.8817818634617538 -4.472631633306747 -1.0593074920989523 0 0 Z " fill="#000000" transform="translate(246,244)"/>
<path d="M0 0 C1.3200000000000003 0.3300000000000125 2.6400000000000006 0.6599999999999966 4 1 C4.329999999999998 1.990000000000009 4.66 2.9799999999999898 5 4 C2.5 3.125 2.5 3.125 0 2 C0 1.3400000000000034 0 0.6800000000000068 0 0 Z " fill="#000000" transform="translate(15,253)"/>
<path d="M0 0 C2.6719696530963937 0.287750578025765 5.339590674768679 0.6199415249669471 8 1 C8 1.990000000000009 8 2.980000000000018 8 4 C5.1875 4.1875 5.1875 4.1875 2 4 C1.009999999999998 3.009999999999991 0.019999999999999574 2.019999999999982 -1 1 C-0.6700000000000017 0.6699999999999875 -0.33999999999999986 0.3400000000000034 0 0 Z " fill="#000000" transform="translate(26,255)"/>
<path d="M0 0 C0.6599999999999966 0 1.3199999999999932 0 2 0 C3.125 2.5 3.125 2.5 4 5 C2 4.1875 2 4.1875 0 3 C0 2.009999999999991 0 1.0199999999999818 0 0 Z " fill="#000000" transform="translate(163,257)"/>
<path d="M0 0 C-2.638874032303505 2.6388740323034767 -4.767304737383881 4.198520529800135 -7.9375 6.0625 C-8.792148437500003 6.569101562500009 -9.646796875000007 7.075703125000018 -10.52734375 7.59765625 C-11.343320312499998 8.060429687500005 -12.159296874999995 8.523203125000009 -13 9 C-13.681914062499999 9.39058593750002 -14.363828124999998 9.781171874999984 -15.06640625 10.18359375 C-17 11 -17 11 -21 11 C-19.63845470583371 6.544033582728446 -17.971452625590416 4.450470768981347 -14 2 C-11.673133694405777 1.3236789976819523 -9.372689295131607 0.8233239572757611 -6.98828125 0.39453125 C-1.8657635467980356 -0.6219211822660213 -1.8657635467980356 -0.6219211822660213 0 0 Z " fill="#000000" transform="translate(228,258)"/>
<path d="M0 0 C2.4375 0.375 2.4375 0.375 5 1 C5.3300000000000125 1.660000000000025 5.659999999999997 2.319999999999993 6 3 C6.783749999999998 3.4125000000000227 7.5674999999999955 3.8249999999999886 8.375 4.25 C11 6 11 6 12.30859375 8.71875 C14.58734950917136 13.139430918484834 17.80002818138638 16.298263693236834 21.236328125 19.8515625 C25 23.811206608811744 25 23.811206608811744 25 26 C20.808364208073044 24.95209105201826 20.45342563301736 24.748193156458058 18.0625 21.5625 C15.616850726511188 18.513217190815453 13.773929239963337 17.220977107046963 10 16 C10 15.339999999999975 10 14.680000000000007 10 14 C9.009999999999991 13.670000000000016 8.02000000000001 13.339999999999975 7 13 C6.833333333333343 12.166666666666686 6.833333333333343 12.166666666666686 6 8 C5.009999999999991 7.670000000000016 4.02000000000001 7.339999999999975 3 7 C0.6773438774268072 4.419270974918675 0 3.548239323035432 0 0 Z " fill="#000000" transform="translate(184,258)"/>
<path d="M0 0 C4.53460430908018 1.1336510772700308 5.9002465326248625 2.6419337436769297 9 6 C6 7 6 7 2.8125 5.25 C1.8843749999999773 4.507499999999993 0.9562500000000114 3.7649999999999864 0 3 C0 2.009999999999991 0 1.0199999999999818 0 0 Z " fill="#000000" transform="translate(284,258)"/>
<path d="M0 0 C1.6499999999999773 0.3299999999999841 1.6499999999999773 0.3299999999999841 10 2 C10 2.660000000000025 10 3.319999999999993 10 4 C6.063295116644724 5.312234961118406 3.8751185618093587 4.242962557561498 0 3 C0 2.009999999999991 0 1.0199999999999818 0 0 Z " fill="#000000" transform="translate(296,264)"/>
<path d="M0 0 C4.000510411523692 1.2223781812988932 6.999535232224332 3.087784195982408 10 6 C9.670000000000016 6.990000000000009 9.339999999999975 7.980000000000018 9 9 C3.955683289038518 7.191660047013784 1.278912330148728 5.95998565973548 -1 1 C-0.6699999999999875 0.6700000000000159 -0.3400000000000034 0.339999999999975 0 0 Z " fill="#000000" transform="translate(256,273)"/>
<path d="M0 0 C3 0.75 3 0.75 6 2 C6 3.319999999999993 6 4.639999999999986 6 6 C3.5625 5.25 3.5625 5.25 1 4 C0.6699999999999875 2.680000000000007 0.3400000000000034 1.3600000000000136 0 0 Z " fill="#000000" transform="translate(215,288)"/>
<path d="M0 0 C0.6599999999999966 0.16500000000002046 0.6599999999999966 0.16500000000002046 4 1 C3.6700000000000017 1.990000000000009 3.3400000000000034 2.980000000000018 3 4 C1.6800000000000068 3.670000000000016 0.35999999999999943 3.339999999999975 -1 3 C-0.6700000000000017 2.009999999999991 -0.3400000000000034 1.0199999999999818 0 0 Z " fill="#000000" transform="translate(120,296)"/>
<path d="M0 0 C1.9800000000000182 0.3299999999999841 1.9800000000000182 0.3299999999999841 12 2 C11.339999999999975 3.319999999999993 10.680000000000007 4.639999999999986 10 6 C6.5625 6.4375 6.5625 6.4375 3 6 C0 3 0 3 0 0 Z " fill="#000000" transform="translate(368,343)"/>
</svg>
