<?xml version="1.0" encoding="UTF-8"?>
<!-- Generator: visioncortex VTracer 0.6.12 -->
<svg version="1.1" xmlns="http://www.w3.org/2000/svg" width="40" height="120">
<path d="M0 0 C1.1875 1.1874999999999982 1.1875 1.1874999999999982 1.3671875 2.20703125 C1.375 3.312500000000007 1.375 3.312500000000007 1.1875 5.1875 C1.8475000000000001 5.1875 2.5075000000000003 5.1875 3.1875 5.1875 C5.133412491229549 9.234855511044259 5.741722524675421 13.191936454343022 6.25 17.625 C6.4066177303347445 18.915478323501976 6.564158682996798 20.20584496075905 6.72265625 21.49609375 C6.798872070312498 22.1185498046875 6.875087890624997 22.741005859375 6.95361328125 23.38232421875 C7.384434231509729 26.70747046741438 7.821862204591582 30.02408989911281 8.78125 33.2421875 C9.299566705330228 35.72412710821592 9.034760485536097 37.822568433496514 8.6875 40.3125 C8.56734730607733 41.18935902160587 8.452547428437597 42.0669722850526 8.34375 42.9453125 C8.290253906250001 43.3283251953125 8.236757812500002 43.711337890625 8.181640625 44.10595703125 C8.1875 45.1875 8.1875 45.1875 8.66943359375 46.144287109375 C9.351919580531195 47.51858617700745 9.316961673187855 48.59096262070961 9.3203125 50.12109375 C9.320957031250003 50.404365234375 9.320957031250003 50.404365234375 9.32421875 51.837890625 C9.3203515625 52.42763671875 9.316484375000002 53.0173828125 9.3125 53.625 C9.314433593749996 53.917939453125 9.314433593749996 53.917939453125 9.32421875 55.400390625 C9.3229296875 55.96822265624999 9.321640625 56.5360546875 9.3203125 57.12109375 C9.319184570312501 57.63728271484375 9.318056640625002 58.1534716796875 9.31689453125 58.685302734375 C9.176588773360976 60.31417316511306 8.760967161084523 61.66157620841513 8.1875 63.1875 C8.847499999999997 63.1875 9.5075 63.1875 10.1875 63.1875 C10.169735107421872 63.454899902343755 10.169735107421872 63.454899902343755 10.079833984375 64.80810546875 C9.949355141556431 66.79442471205644 9.82623571419196 68.78114384390513 9.705322265625 70.76806640625 C9.651988415519064 71.62756814868666 9.596665735068129 72.48694890316752 9.539306640625 73.34619140625 C9.45715143686055 74.58209142809778 9.382184771098878 75.81825162364852 9.30859375 77.0546875 C9.281558685302734 77.43809295654297 9.254523620605468 77.82149841308593 9.226669311523438 78.21652221679688 C9.114634662265885 80.22472435625741 9.248347775501095 81.43350939250773 10.1875 83.1875 C9.624190609617102 87.03258566933167 7.6040593932698926 92.14083269241003 4.65234375 94.734375 C2.402827387655744 96.25984555529979 0.93739649517277 97.1875 -1.8125 97.1875 C-1.8125 98.5075 -1.8125 99.8275 -1.8125 101.1875 C0.16750000000000043 101.8475 2.147500000000001 102.5075 4.1875 103.1875 C3.3125 107.0625 3.3125 107.0625 2.1875 108.1875 C0.89698346789487 108.27501497556203 -0.33904081258587127 108.30331139429987 -1.62890625 108.28515625 C-1.816865158081054 108.28444877624511 -1.816865158081054 108.28444877624511 -2.7680511474609375 108.28086853027344 C-3.970447888705273 108.27526437019415 -5.17265940516133 108.26271175973 -6.375 108.25 C-7.189450438398072 108.24498550872089 -8.003903791361648 108.24042251261129 -8.818359375 108.236328125 C-10.81647777868671 108.2252936739083 -12.81445747010145 108.20802675271747 -14.8125 108.1875 C-14.8125 107.1975 -14.8125 106.2075 -14.8125 105.1875 C-12.8325 104.1975 -10.8525 103.2075 -8.8125 102.1875 C-9.29924113440677 98.69794048256068 -9.29924113440677 98.69794048256068 -10.61279296875 97.3916015625 C-11.637961173660678 96.66102192221882 -12.684779884650414 95.98322897574319 -13.75 95.3125 C-18.242532915734575 92.18610594947458 -18.242532915734575 92.18610594947458 -19.125 89.5 C-19.361285405141594 88.39733477600589 -19.589079468560897 87.29284368185662 -19.8125 86.1875 C-20.084549424782715 85.30222159369063 -20.365319506068058 84.41959973918841 -20.65234375 83.5390625 C-20.9562404441956 82.56786816959867 -21.259621504412287 81.59651234941056 -21.5625 80.625 C-21.71501220703125 80.16585205078125 -21.8675244140625 79.7067041015625 -22.024658203125 79.233642578125 C-22.952333196285096 76.05149498327158 -22.713743530499734 74.3842370096543 -21.3017578125 71.413330078125 C-20.491572887251976 69.38342064216177 -20.683452694917356 67.4600339355694 -20.8125 65.3125 C-20.940727972714335 61.399361128132455 -20.50503175726959 58.42854903023691 -19.25 54.70703125 C-18.72081622496677 52.86906260278637 -18.76869450300501 51.32521155899958 -18.877197265625 49.43603515625 C-18.80467815137213 48.03655307968706 -18.444988412982347 47.20593380842409 -17.83984375 45.94921875 C-16.5491043988705 42.85916376866799 -16.483914059186162 39.93903520009249 -16.375 36.625 C-16.069524033966783 30.748861344382917 -15.507414093272788 24.93794315320757 -14.682098388671875 19.111114501953125 C-14.562882060882883 18.26093645663639 -14.448376716982171 17.41008127946887 -14.339141845703125 16.558563232421875 C-13.725329456226282 11.821371697534754 -12.753891179834971 7.539952246256853 -10.83203125 3.1484375 C-10.664750213623046 2.7646694946289063 -10.497469177246094 2.3809014892578126 -10.325119018554688 1.985504150390625 C-9.11428615759539 -0.5971885302538684 -9.11428615759539 -0.5971885302538684 -7.76025390625 -1.563232421875 C-5.165794815544931 -2.245597885968219 -2.3467398317476302 -1.0519868211282475 0 0 Z M-5.8125 10.1875 C-9.149481366429903 21.29893795417616 -9.9710586419434 33.015767911412816 -10.470947265625 44.552490234375 C-10.727841323795385 50.21003752834522 -10.727841323795385 50.21003752834522 -11.33984375 52.39453125 C-11.911090188119699 54.56149087890035 -11.881651049478524 56.46381919323963 -11.8125 58.6875 C-11.728059440903586 63.24903123366201 -12.05244832277931 67.717800075244 -12.544921875 72.251953125 C-12.59326171875 72.73599609375 -12.6416015625 73.2200390625 -12.69140625 73.71875 C-12.73853759765625 74.14736328125 -12.7856689453125 74.5759765625 -12.834228515625 75.017578125 C-12.809476932926497 76.35027008332838 -12.44627599621907 77.03273865095679 -11.8125 78.1875 C-11.688036683938497 79.31043569602156 -11.586088355608194 80.4359723751842 -11.5 81.5625 C-11.076387860394059 84.63689719501888 -10.431056171157536 86.4924420656014 -8.06640625 88.54296875 C-5.738407664901487 89.73960353673289 -3.35067034124247 89.4920804409491 -0.8125 89.1875 C-0.4825000000000017 88.1975 -0.15249999999999986 87.2075 0.1875 86.1875 C0.8475000000000001 86.1875 1.5075000000000003 86.1875 2.1875 86.1875 C2.1758984375000026 85.5468359375 2.164296874999998 84.906171875 2.15234375 84.24609375 C2.0578017761614475 76.3899606981256 2.0578017761614475 76.3899606981256 2.8125 72.6875 C3.399607650488246 69.25332237317149 2.7306829397900003 66.4331575833105 1.951904296875 63.0986328125 C1.1636302049066458 59.56577420184624 1.0679456381929207 56.2612489684837 1.156494140625 52.65478515625 C1.2050421707675056 50.43907055533177 1.143970104323607 48.432302279574515 0.6875 46.25 C0.003719336469039547 42.92606621894672 0.1346137868530093 39.609276799850676 0.224609375 36.232666015625 C0.27547363789737744 33.50506991775306 0.033579809641103964 31.07377213548208 -0.56298828125 28.413330078125 C-0.9734920298694725 26.396559704525814 -1.0914725030768153 24.36159966611195 -1.25 22.3125 C-1.6192257309408653 18.06520789850745 -2.4361875361748133 14.222901592963161 -3.8125 10.1875 C-4.4725 10.1875 -5.1325 10.1875 -5.8125 10.1875 Z " fill="#000000" transform="translate(25.8125,8.8125)"/>
</svg>
