<?xml version="1.0" encoding="UTF-8"?>
<!-- Generator: visioncortex VTracer 0.6.12 -->
<svg version="1.1" xmlns="http://www.w3.org/2000/svg" width="64" height="184">
<path d="M0 0 C1.5308498175216485 0.15166313981638702 2.5605840299070266 0.44213861810299626 3.94921875 1.125 C7.39017869466921 5.4605979191479115 8.685298316603898 10.148952015557992 9.43359375 15.5625 C9.538879685645306 16.253342111540753 9.645290133544698 16.94401365458489 9.75274658203125 17.634521484375 C9.97298208099349 19.06868344846712 10.183936225237403 20.503766740182414 10.38720703125 21.9404296875 C10.644962533765614 23.761114347308023 10.919690802494031 25.578695713420196 11.20071029663086 27.395919799804688 C11.419757492460882 28.817806691111315 11.632900817681744 30.240527285166465 11.844062805175781 31.663604736328125 C11.99104273581954 32.65348252084738 12.140227153263275 33.643032202037475 12.28948974609375 34.632568359375 C12.809536248199713 38.31578059189261 12.975126301580666 41.84305786647074 12.922271728515625 45.5596923828125 C12.958157084011212 47.64421294235922 13.34901200886953 49.46430740068892 13.9375 51.453125 C14.1511666528516 52.2473662307481 14.363761554998845 53.04189634493252 14.575439453125 53.836669921875 C14.687638244628907 54.24887786865234 14.799837036132814 54.661085815429686 14.915435791015625 55.085784912109375 C17.330561360145495 64.07732273425543 18.762208222644524 73.06259192435526 19.76171875 82.3125 C19.82461090087891 82.87900268554688 19.88750305175781 83.44550537109374 19.952301025390625 84.0291748046875 C20.557541213890346 89.56733872258262 21.052387805966184 95.09841441141513 21.125 100.671875 C21.13416946411133 101.0655778503418 21.143338928222654 101.45928070068359 21.152786254882813 101.86491394042969 C21.143259372838102 105.29519562026499 20.046984323698986 107.87478474862363 18.41015625 110.84765625 C16.20816249615168 112.77292886365882 13.795205593587532 112.8575880458846 10.94921875 113.125 C11.004567871093748 113.46120361328126 11.059916992187503 113.7974072265625 11.116943359375 114.143798828125 C14.596296939300416 135.47248971193414 14.596296939300416 135.47248971193414 13.10546875 143.46875 C12.94921875 145.125 12.94921875 145.125 13.484375 146.6640625 C13.94921875 148.125 13.94921875 148.125 13.6015625 149.5546875 C11.52910325294765 153.74490564977796 8.908367957761875 156.63261080514155 4.94921875 159.125 C4.289218750000003 159.125 3.6292187499999997 159.125 2.94921875 159.125 C2.94921875 160.775 2.94921875 162.425 2.94921875 164.125 C3.1864062500000045 164.1765625 3.1864062500000045 164.1765625 4.38671875 164.4375 C5.949218750000007 165.125 5.949218750000007 165.125 6.69921875 166.5625 C6.94921875 168.125 6.94921875 168.125 6.5966796875 169.190185546875 C5.94921875 170.125 5.94921875 170.125 4.9970703125 170.491455078125 C3.731335105209304 170.65888460870966 2.4704611834805306 170.81713622665393 1.19921875 170.9375 C0.9730688476562506 170.96034057617186 0.9730688476562506 170.96034057617186 -0.17138671875 171.075927734375 C-3.4822026749832204 171.31020045147972 -5.6182341078037545 170.88520004382676 -8.30859375 168.81640625 C-8.553515625 168.5882421875 -8.798437499999999 168.360078125 -9.05078125 168.125 C-8.238281250000032 166.62500000000006 -8.238281250000032 166.62500000000006 -7.05078125 165.125 C-5.425781250000028 164.9375 -5.425781250000028 164.9375 -4.05078125 165.125 C-5.0855031074870425 161.68046539547078 -6.108453688510199 159.66733354935343 -9.24609375 157.80078125 C-9.511640624999998 157.5777734375 -9.7771875 157.354765625 -10.05078125 157.125 C-10.05078125 156.465 -10.05078125 155.805 -10.05078125 155.125 C-10.4644091796875 155.1354736328125 -10.878037109375 155.145947265625 -11.30419921875 155.15673828125 C-13.1779981019701 155.1983080964071 -15.051699995558337 155.22432765404875 -16.92578125 155.25 C-17.5767578125 155.2667578125 -18.227734375 155.283515625 -18.8984375 155.30078125 C-19.5236328125 155.3072265625 -20.148828125 155.313671875 -20.79296875 155.3203125 C-21.3690185546875 155.3307861328125 -21.945068359375 155.341259765625 -22.53857421875 155.35205078125 C-24.050781250000018 155.125 -24.050781250000018 155.125 -25.255859375 154.1796875 C-26.05078125 153.125 -26.05078125 153.125 -26.02734375 152.0546875 C-25.701822916666668 151.078125 -25.376302083333332 150.1015625 -25.05078125 149.125 C-23.73078125 149.125 -22.41078125 149.125 -21.05078125 149.125 C-21.05078125 147.475 -21.05078125 145.825 -21.05078125 144.125 C-21.646328125 144.039921875 -22.241875 143.95484375 -22.85546875 143.8671875 C-25.57966094799117 143.17353856148065 -26.698326625891415 141.53630502972638 -28.17578125 139.25 C-28.30509033203125 139.05216918945314 -28.30509033203125 139.05216918945314 -28.95947265625 138.051025390625 C-33.36530457057576 130.78830886646614 -34.103317512251515 120.83430781044692 -32.6015625 112.58203125 C-31.857261567399526 108.29712749541486 -31.54107830795609 103.97093756447927 -31.177978515625 99.64056396484375 C-31.04902312821451 98.10405186081792 -30.91636656352472 96.567890923941 -30.783203125 95.03173828125 C-30.40118607604731 90.58355491579327 -30.032665195860254 86.13665241428134 -29.76953125 81.6796875 C-29.730859375 81.04546875 -29.6921875 80.41125 -29.65234375 79.7578125 C-29.587217862155015 78.63063367191376 -29.52927658207481 77.5030032301734 -29.48046875 76.375 C-29.34015607020475 73.91315025450152 -29.064110813456573 71.9544316031496 -28.04296875 69.69921875 C-26.660491724130928 66.56311320843395 -26.76017898161468 63.44319470297776 -26.67578125 60.0625 C-26.441623640504766 54.936979785670495 -25.809946079170157 50.21423441084574 -24.17578125 45.3125 C-24.014165039062497 44.81548583984375 -23.852548828125002 44.3184716796875 -23.68603515625 43.806396484375 C-22.900587367248146 41.63591952808076 -22.3180998397197 40.36403090826788 -20.57421875 38.8046875 C-18.531764378311777 37.89343862647756 -17.400358464023903 37.849464021861074 -15.2578125 38.38671875 C-13.0886022721566 39.71351723887509 -12.341005181492001 41.94753727158862 -11.54296875 44.26953125 C-10.918713247882422 46.622875404808326 -10.750802501479935 48.714059687820225 -11.05078125 51.125 C-10.39078125 51.125 -9.73078125 51.125 -9.05078125 51.125 C-9.073984374999998 50.4843359375 -9.0971875 49.843671875 -9.12109375 49.18359375 C-9.13988269747912 48.309907692220854 -9.158079480597191 47.436208761238575 -9.17578125 46.5625 C-9.1925390625 46.14419921875 -9.209296875 45.7258984375 -9.2265625 45.294921875 C-9.266102854228865 42.66548831878034 -8.920362911600591 40.5287922566374 -8.1015625 38.02734375 C-7.124814602017935 34.8520487028875 -6.756918902607229 31.817736967007093 -6.5234375 28.5078125 C-6.487766723632813 28.00236404418945 -6.452095947265626 27.49691558837891 -6.41534423828125 26.976150512695313 C-6.274080766220287 24.87577165765029 -6.1437621577758215 22.774921873110042 -6.021728515625 20.67333984375 C-4.816709185142187 0.5729914272288106 -4.816709185142187 0.5729914272288106 0 0 Z M-0.05078125 13.125 C-0.09976562500000341 13.6728515625 -0.14874999999999972 14.220703125 -0.19921875 14.78515625 C-0.6736405638778677 19.888485345116795 -1.25564759996508 24.97592298062193 -1.91973876953125 30.057830810546875 C-2.049081014043985 31.049464725685162 -2.1756819800832616 32.04145494559433 -2.30224609375 33.033447265625 C-2.3842626953125006 33.65018310546875 -2.466279296875001 34.2669189453125 -2.55078125 34.90234375 C-2.6229687499999983 35.45140380859375 -2.6951562499999966 36.0004638671875 -2.76953125 36.566162109375 C-3.05078125 38.125 -3.05078125 38.125 -3.552978515625 39.611328125 C-4.101089817515096 41.27797357459225 -4.321492797939207 42.82349351791197 -4.515625 44.56640625 C-4.593164711087155 45.2343048890389 -4.670805309321921 45.90219182159123 -4.74853515625 46.570068359375 C-4.787630004882814 46.91584930419922 -4.826724853515628 47.26163024902344 -4.86700439453125 47.617889404296875 C-5.437129668470384 52.64615330119992 -6.059650109164888 57.62049695222288 -7.17578125 62.5625 C-7.880634240979628 65.75029739505314 -8.231616107351389 68.79458055938605 -8.23828125 72.0625 C-8.2390869140625 72.42851318359375 -8.239892578125001 72.7945263671875 -8.24072265625 73.171630859375 C-8.195331872715933 75.32668439316465 -7.836188161362514 77.12064156220285 -7.05078125 79.125 C-6.39078125 79.125 -5.73078125 79.125 -5.05078125 79.125 C-4.964414062499998 78.7756640625 -4.8780468749999955 78.426328125 -4.7890625 78.06640625 C-4.335349889440664 76.59704339195005 -3.898948624939422 75.4121685790538 -3.05078125 74.125 C-1.388124176546043 73.38488305821173 0.15174156034316155 73.2517119810044 1.94921875 73.125 C4.476124917770747 76.02774999468042 5.690168304591552 78.71185883720727 6.57421875 82.4375 C6.699741210937503 82.94659912109375 6.825263671875 83.4556982421875 6.95458984375 83.980224609375 C8.345158438036478 90.10919701999168 8.586457158241785 96.33644992507135 8.79150390625 102.597900390625 C8.959583675789247 104.22536007865592 9.378059735281383 105.59627599721502 9.94921875 107.125 C10.598513445251015 106.8411223192856 11.24357095586528 106.54754168411927 11.88671875 106.25 C12.246367187499999 106.087578125 12.606015624999998 105.92515625 12.9765625 105.7578125 C14.166212081892155 104.98382361539547 14.419804985921033 104.43208854772602 14.94921875 103.125 C16.10752482033051 94.7641361832507 14.69947677330093 85.91437777434746 13.57421875 77.625 C13.511094970703127 77.14905395507813 13.447971191406253 76.67310791015625 13.3829345703125 76.1827392578125 C12.75086629125088 71.48535033699645 12.079206762237945 67.00818627406281 10.43115234375 62.54345703125 C9.467420803995168 59.70694221565955 8.988009637209288 56.75369022725397 8.44921875 53.8125 C8.385742492675782 53.47140197753906 8.322266235351563 53.130303955078126 8.256866455078125 52.77886962890625 C7.2568256457160345 47.374446752226014 6.502258854356967 41.96059747330309 5.88671875 36.5 C5.866813812255856 36.32454147338867 5.866813812255856 36.32454147338867 5.766082763671875 35.436614990234375 C5.450810753655631 32.650869261802086 5.1396286467976395 29.864644839858293 4.8345947265625 27.0777587890625 C4.579685513142259 24.757570252458514 4.300575252492941 22.441262443507384 4.01171875 20.125 C3.949118652343749 19.5312255859375 3.8865185546874983 18.937451171875 3.822021484375 18.32568359375 C3.6311128452564816 16.85496376770491 3.4507167706534645 15.520684188388309 2.94921875 14.125 C1.3828125 13.25 1.3828125 13.25 -0.05078125 13.125 Z M-18.05078125 49.125 C-19.56818147114297 50.64240022114297 -19.38032894113977 52.47879269881316 -19.55078125 54.52734375 C-19.59138671875 54.965106353759765 -19.6319921875 55.40286895751953 -19.673828125 55.85389709472656 C-19.8037271576637 57.256416325881986 -19.927870778099916 58.659352132312506 -20.05078125 60.0625 C-20.212822609488516 61.90540397715161 -20.380282968869935 63.74770538938253 -20.55078125 65.58984375 C-20.568505859375 65.80185173034668 -20.568505859375 65.80185173034668 -20.658203125 66.87474060058594 C-20.676572265624998 67.07325874328613 -20.676572265624998 67.07325874328613 -20.76953125 68.077880859375 C-20.79982421875 68.42572128295899 -20.8301171875 68.77356170654296 -20.861328125 69.13194274902344 C-21.076784001938435 70.26129873541441 -21.528277914334872 71.10608448463518 -22.05078125 72.125 C-22.20849609375 73.53173828125 -22.20849609375 73.53173828125 -22.26171875 75.1953125 C-22.28822509765625 75.8325927734375 -22.3147314453125 76.469873046875 -22.342041015625 77.12646484375 C-22.35534454345703 77.47070495605469 -22.368648071289062 77.81494506835938 -22.382354736328125 78.16961669921875 C-22.737821058497822 87.01305924134915 -23.79612627543101 95.72539016088041 -25.03466796875 104.48486328125 C-25.709356446498834 109.38246392793172 -26.18015838911778 114.19599079642529 -26.19140625 119.14453125 C-26.192780914306642 119.59657928466797 -26.19415557861328 120.04862731933594 -26.195571899414063 120.51437377929688 C-26.154995679600745 124.02436215319935 -25.524540560500025 126.92563643353475 -24.05078125 130.125 C-23.9592578125 130.39248046875 -23.9592578125 130.39248046875 -23.49609375 131.74609375 C-22.827863484047043 133.46616795310115 -22.215363966116705 134.6897656582383 -21.05078125 136.125 C-19.342529296874982 136.8310546875 -19.342529296874982 136.8310546875 -17.4375 137.296875 C-17.120833740234374 137.3772802734375 -17.120833740234374 137.3772802734375 -15.518310546875 137.7841796875 C-15.276168212890624 137.8404150390625 -15.276168212890624 137.8404150390625 -14.05078125 138.125 C-14.025725097656249 137.63620361328125 -14.000668945312498 137.1474072265625 -13.974853515625 136.643798828125 C-13.879756636483908 134.80781599236562 -13.779798505665077 132.97212299946437 -13.678466796875 131.136474609375 C-13.635500240053172 130.3461796260342 -13.593803440606393 129.55581443714817 -13.553466796875 128.765380859375 C-13.15419208442298 120.97212999040408 -13.15419208442298 120.97212999040408 -12.284912109375 117.165283203125 C-11.848093581643106 115.22442423892728 -11.657684504364571 113.24823342400593 -11.43212890625 111.27392578125 C-11.239542641033065 109.61068076346739 -11.023921053710382 107.97399328671324 -10.73046875 106.32421875 C-9.30934682294614 97.81570669956213 -10.188857077526379 88.74626790920996 -12.394287109375 80.44189453125 C-13.130327214499928 77.433253430525 -13.051461174545864 74.64293021538728 -12.92578125 71.5625 C-12.639998833589651 63.8040840854338 -14.92831763274161 56.514108710083065 -17.05078125 49.125 C-17.38078125 49.125 -17.71078125 49.125 -18.05078125 49.125 Z M-0.05078125 79.125 C-1.9206966068040003 81.72569705711821 -2.395040084905766 84.50574822572634 -2.61328125 87.625 C-2.819353994966754 90.19433252235143 -3.146742554044451 92.53905749737066 -3.816650390625 95.0390625 C-4.300646140634868 97.28391452924286 -4.350666094241831 99.58785015366209 -4.48828125 101.875 C-4.806738455102007 106.5891112119655 -5.290533707211562 111.25421731850358 -5.917633056640625 115.9371337890625 C-9.568235703779116 143.36476495413234 -9.568235703779116 143.36476495413234 -5.19921875 150.51953125 C-4.200571994615878 151.73333360715387 -3.4722069740826385 152.4552434723814 -2.05078125 153.125 C-0.24341657993702626 153.1404475612826 1.2649862719258138 152.76003847533946 2.94921875 152.125 C2.94921875 151.465 2.94921875 150.805 2.94921875 150.125 C3.939218750000002 150.125 4.929218750000004 150.125 5.94921875 150.125 C6.929795647432023 142.56054964838154 7.400846005988086 135.4176510333711 6.16796875 127.83203125 C5.94728604481999 126.10991799707742 5.917316869423672 124.4846647563376 5.94921875 122.75 C5.995692391900853 119.74913055154485 5.73957514434192 116.84607728983522 5.372802734375 113.87451171875 C5.036875814108484 111.09144649595883 4.810877890680402 108.31293159202288 4.622802734375 105.51611328125 C4.020659447488434 96.62027333740059 2.76458246126694 87.854195718007 0.94921875 79.125 C0.6192187500000017 79.125 0.2892187500000034 79.125 -0.05078125 79.125 Z " fill="#000000" transform="translate(37.05078125,7.875)"/>
</svg>
